<svg id="Layer_1" data-name="Layer 1" xmlns="http://www.w3.org/2000/svg" viewBox="0 0 1112 705.64"><defs><style>.cls-1{fill:#d73935;}.cls-2{fill:#fbc02d;}.cls-3{fill:#acc9d5;}.cls-4{fill:#0984e3;}</style></defs><title>page2</title><circle class="cls-1" cx="1008" cy="249.08" r="104"/><circle class="cls-2" cx="104" cy="382.08" r="104"/><path class="cls-3" d="M201.5,601.5c47.4,47.48,160.29,146.6,333,177,56.52,10,265.34,46.7,424-89,18.29-15.65,164.45-140.65,138-289-24.42-136.95-179.62-202.18-291-249-77-32.37-266.65-112.08-466-32-61,24.5-212.77,85.47-237,227C79.63,480.09,187.17,587.6,201.5,601.5Z" transform="translate(-76 -84.92)"/><path id="color_2" class="cls-2" d="M675,545.83a21.59,21.59,0,0,0-3.91,4.85,18.69,18.69,0,0,1,3.75-5.58C674.84,545.05,674.9,545.38,675,545.83Zm21.57-2.16c-5.16-2-11-1.34-16.56,1l-.1,0c-.16.11-.3.24-.46.37a19.06,19.06,0,0,0-6.5,8.74,14.67,14.67,0,0,0,2.39,14c6.2,8.17,17.82,10.25,25.36,4.35a17,17,0,0,0,4.72-5.88c2.92-5.91,2.31-13.4-2.4-18.29A17.72,17.72,0,0,0,696.53,543.67Zm-38.46-22.62c.85-1,.84-1.14,0-.34l-1.15,1.07c2.12.42,3.71,2,5.56,3.1A20.82,20.82,0,0,0,658.07,521.05Zm-8,63.29a11.14,11.14,0,0,1,1.34-3.89C650.22,581.62,649.45,583,650.05,584.34Zm88.62-102.73c-.33,0-.37.08,0,0Zm-6.31,71.5-.73.08c1.2.2,2.47.32,3.63.61A3.56,3.56,0,0,0,732.36,553.11Zm6.56-71.57.35-.12,1.86-.73c1.54-.65,3.07-1.31,4.6-2,9.7-4.36,19.26-9.1,28.55-14.28,7.36-4.12,17.75-8.71,22.79-15.8,2.1-2.94-2.33-9.58-3.72-12.15-1-1.76-1.9-3.65-3-5.44q-5.26,4.14-10.84,8l-4,3.16-2.81,1.31c-5.38,3.38-10.92,6.52-16.55,9.35-9.23,4.65-19,9-29.28,10.7a61.28,61.28,0,0,0,4.84,9C733.39,475,736.15,480.07,738.92,481.54ZM654.83,613a1.11,1.11,0,0,0-.07.16c2.3-.2,7-.59,11.58-.92C662.38,612,658.34,611.94,654.83,613Zm62.76-173.73-.31,1.15a2.57,2.57,0,0,1,.51-.31C717.73,439.8,717.66,439.52,717.59,439.24ZM647.77,619.36l0-.06a2.44,2.44,0,0,0-.1.24Zm56.1,27.22c-2.53-2.45-4.11-4-4.11-4l-.83-.13Zm16.67-183.8c-.72,0-1.34-.2-1.34-.82,0-2.91,0-5.95-.06-9l-.79-7.67c-4.47,8.84-9.7,17.38-12.82,26.8C711.38,470.9,716.05,466.68,720.54,462.78Zm12.88,103.89a2.12,2.12,0,0,0,1.87-1.27c-.18.19-.36.36-.53.51A5,5,0,0,1,733.42,566.67Zm-48.79,31.55c-.5-.76-1-1.57-1.62-2.36,0,1.15-.08,2.38-.14,3.6.9-.14,1.81-.23,2.72-.3A3.08,3.08,0,0,1,684.63,598.22ZM641.26,559.6c0,.31,0,.62,0,.92-.1,2.57-.83,2.58,1.74,2.27h0A5.08,5.08,0,0,1,641.26,559.6Zm33.54-33.38c-.7.38-1.63.87-2.65,1.33a4.38,4.38,0,0,0,3-1.35A1.64,1.64,0,0,1,674.8,526.22Zm-33.37,25.11.08,0a1.37,1.37,0,0,1,1.79-.73l.77-.3c-.91,0-1.82.06-2.73.13Q641.4,550.87,641.43,551.33Zm77.09-29.28c-1.92-.92-3.27-.69-4.5.41A6.18,6.18,0,0,1,718.52,522.05Zm173,107.63c0,1.16-.39,4.19.14,5.09-1.46.23-3.64.56-6.29.91-19.32,1.56-39,1.28-58.37.54l-19-1.11-2.93-.27c-2.34-.22-4.67-.51-7-.84-2.86-.41-3.3-2-3.94-4.51-1.25-5-1.16-10.39-1.15-15.49,0-2-.19-4.36-.05-6.55,31.89-.32,64.43-4.66,95.8,2.88,1.83.44,3.52-2.16,1.19-2.72-31.63-7.6-64.45-3.25-96.6-2.91a.61.61,0,0,0-.21-.43c.24-.26.3-.54,0-.79-.73-.69.68-7.4.81-8.56.67-6.08,1.42-12.15,2.13-18.22,1.6-13.57,3.26-27.19,3.9-40.84.07-1.49-3.48-.77-3.54.43-.69,14.65-2.54,29.24-4.25,43.79-.71,6-1.46,12.1-2.11,18.16-.12,1.15-1.26,5.65-.22,6.63h0c-1.07.46-1.39,1.76-.53,2.32-1,6,0,13.41.58,19.14.3,2.88.68,6.76,2.92,8.88a6.79,6.79,0,0,0,3.36,1.44l0,.18c-14-3.23-29.07-4-42-10.34-3.62-1.77-8.09-4.52-9.65-8.39-1.22-3.05,0-7.29.69-10.38,0,0,0,0,0-.07L747,601.5a92.19,92.19,0,0,1,6.77-14.45c1.39-2.48,3.56-6.11,1.81-8.87-1.64-2.57-6.94-.64-8.82.38-11.37,6.13-12.1,22.62-25.17,26.91-4.47,1.47-9.58,1.26-14.22,1.42-4.4.15-8.74.8-13.11,1.37a182.93,182.93,0,0,1-27.46,2c-5.19-.12-10.66-.36-15.49,1.83a7.58,7.58,0,0,0-3.92,4.81,2.26,2.26,0,0,0-2.22.66c-1.45,1.9-1.67,3.42-1.16,4.65-.86.24-1.64.87-1.51,1.67.52,3.35,4.57,5.63,9.09,7.23l.94.94s23.63,5.7,30.15,7.33c1.27.32,2.69.64,4.16.94,2.85.76,5.78,1.76,7.6,3.52a1.82,1.82,0,0,0,1.52.36c12.23,10.17,24.26,20.56,36.84,30.25,2.39,2.25,4.27,4,5.29,4.86a66.45,66.45,0,0,0,9,5.57c.79.54,1.56,1.1,2.35,1.64A186.43,186.43,0,0,0,772.9,700.2l-1.43.24H615.83s0-.56-.1-1.61c1-.2,2.1-.69,2-1.13a102.86,102.86,0,0,1-2.89-22.84c0-1.68-.05-3.41-.06-5.19,0-4.93.18-9.85.39-14.7.68-15.67,2.39-31.29,4.17-46.87,2.09-18.26,4.95-36,10.6-53.53,6.05-18.83,16.53-36,21.33-55.26.18-.72-3.27-.22-3.49.64-4.79,19.2-15.13,36.5-21.33,55.25-.5,1.52-1,3-1.41,4.55-11.81,0-23.62,0-35.44,0-5.32,0-10.65.07-16,.24-.68,0-1.47,0-2.28,0,7.21-17.86,9.07-43.46,10-53.09,1.19-12.76,1.87-25.62,1.88-38.44,0-.64-3.54-.11-3.54.94a425.43,425.43,0,0,1-2.75,46.93c-1.59,14.16-3.41,30.42-9.3,44.12a5,5,0,0,0-.62.26c-1.25.67-1.1,1.57-.42,2a58.17,58.17,0,0,1-4.24,7.52c-5.1,7.53-11.88,8.08-19.41,3.31s-8.78-14.28-8.24-22.43c1.42-21.45,13-42.3,22.13-61.31,2-4.18,4-8.37,5.72-12.7l.49,0c7.26,1,13.89-4.75,17.92-10.51l4.6-.24c42.62,4.09,83.19-14.37,125.62-14.71a1.1,1.1,0,0,0,.25,0c-3.78,7.09-7.58,14.17-9.87,21.89-.31,1.05.56,1.65,1.56,1.58,8.18-.54,14.2-5.8,20.17-10.9A66.71,66.71,0,0,0,736.09,483c.83.85,4.07-.68,4.89-1,9.91-3.77,19.49-8.72,28.86-13.66s19.63-9.93,27.58-17.09a1.07,1.07,0,0,0,.68.61c10.28,4.46,21,8.46,31.31,13l29.25,16.41.72.42a84.79,84.79,0,0,1,14.44,13.82c16.79,20.56,17.58,49.63,18.31,74.94.41,14,.18,27.92-.16,41.88C891.82,618.1,891.65,623.89,891.5,629.68Zm-156.65-79c-3.53.05-5.88.79-7.38-3.15.18.47.28-2,.31-3,.66-1.72,1.74-3.63,2.44-5.51l1.2-1.2a5.83,5.83,0,0,0,1.62-4.37c-1-5.89-10.4-15.63-16.91-15-3.82.38-5.81,3.47-7.6,6.47-2.43,4-6,1.86-9.21.53-2.43-1-1.26-3-1.59-5.78-1.26-10.46-12.46-9.68-20.21-7.6-4.2,1.12-5.14,8.29-4.28,12.36a15.29,15.29,0,0,1-4.16,1.64l-1,.08c-.68-.89-1.41-1.75-2.15-2.59-1.51-1.7-5.19-5.93-7.71-5.47-3.91.72-7.35,6-9.67,8.83-3.61,4.37-3.28,5.08.65,8.79a29.47,29.47,0,0,0,3.64,2.85c2.3,1.56.71,2.22-.44,4.93-2.54,6-7.71,3.91-12.88,4.82-.73.13-2.2.59-2,1.63.6,2.7-1.86,14.71,1.36,15.35,4.31.88,8.42-2.37,12.22,1.64,2.47,2.6.64,6.6,1.33,9.67-2.92,1.77-7.53,5.16-6.66,8.39.7,2.61,5.57,6.23,7.72,7.78,2.94,2.13,8,3.54,11.36,1.64,1.64-.92,2.23-3.17,4.39-3.07a51,51,0,0,1,6.19.92c5.84,1.08,3.78,5.07,3.8,8.81,0,1.06,1.3,1.08,2.07.89,5.62-1.4,20,1.26,22.95-5.47.43-1-.24-2-.74-2.81-2.52-4.12,2.26-5.47,5.38-6.88.17-.08.19-.16.18-.21a3.83,3.83,0,0,0,1,1c.83.74,1.59,1.56,2.37,2.35,1,1,2.61,3,4.15,3.32,3,.61,4.73-2,6.68-4s7.91-5.86,7.09-9.1c-.22-.89-2.84-2.72-5-4-.45-.53-.9-1-1.32-1.47a10.12,10.12,0,0,1-1-1.28c1.91-3.3,4-4.47,8.61-4.42,2,0,3.88.15,5.54-1.12C741.44,564.57,742.47,550.57,734.85,550.68Zm-75,42.09a3.65,3.65,0,0,0,3.1-.1A9.53,9.53,0,0,1,659.87,592.77ZM726,528.17a45,45,0,0,0-3.36-3.26c1.48,1.57,2.84,3.42,4.23,4.78l1.39,1.36A18.2,18.2,0,0,0,726,528.17ZM717.25,590h0a2.78,2.78,0,0,1,.79.93,1.41,1.41,0,0,1,.41-.59l.15-.16a4.78,4.78,0,0,1-1.28-.16Zm-16.75,5.54a9.51,9.51,0,0,1-2.21,2.22c1.62-.38,2.79-.89,2.52-1.56C700.71,596,700.61,595.79,700.5,595.58Zm-48.2-31.84a5.51,5.51,0,0,1,2.86,3.11,17.44,17.44,0,0,1,.51,5.6,6.79,6.79,0,0,0,.38-2.05C656.1,567.88,655.24,563.82,652.3,563.74Z" transform="translate(-76 -84.92)"/><path id="color_1" class="cls-4" d="M429.23,450c21.89-5.46,41.49-24.82,43.66-47.68,1.75-18.45-8.56-36-24.1-45.41-18.21-11-40.69-8.54-59.6-.77a2.72,2.72,0,0,0-1.77.29c-21.29,13.69-32.67,36.7-22.29,61.11S403.4,456.46,429.23,450Zm-7.87-.79C406.83,451,392.55,444.6,382,434.86a45.92,45.92,0,0,1,12.7-11.51,2,2,0,0,0,.3-.23c19.72-8.09,43-5.29,54.43,14.3A58.35,58.35,0,0,1,421.36,449.22Zm-56.74-53.73c.62-14.89,10.08-27.07,21.74-35.47.54-.38,1.1-.72,1.64-1.09a2.26,2.26,0,0,0,.83-.18c23-10,50.6-10.22,68.61,9.41,13.95,15.2,15.58,37.84,4.86,55.2a52.43,52.43,0,0,1-10.16,11.82c-12.57-19.94-37-21.08-57.36-13.3a2.82,2.82,0,0,0-2.42.1,51,51,0,0,0-12.46,10.9c-1.13-1.13-2.22-2.3-3.25-3.51A49.67,49.67,0,0,1,364.62,395.49ZM431,404.56c9.56-6.53,12.52-18.65,6.11-28.42-7-10.63-21-10.38-31.66-6.29a2.74,2.74,0,0,0-1.34.36c-11.31,7.5-14.77,20.12-5.91,31.14C406.59,411.79,420.64,411.62,431,404.56Zm-25.44-32.8a.39.39,0,0,0,.14-.05c10.06-4.23,21.31-3.46,28.12,5.81,5.41,7.37,3.75,17.35-2.32,23.7-8.86,9.3-21.86,7.88-30-1.24S396.1,378.56,405.55,371.76Zm383.7-114c21.16-6.24,39.71-24.44,41.84-46.9,1.81-19-9.46-37-25.9-45.93-17.92-9.72-39.35-6.89-57.55.51a6.32,6.32,0,0,0-2.22.45c-11.07,7.13-20.31,16.53-24.4,29.29-3.45,10.73-1.7,22.38,2.91,32.46C735.12,252.16,763.51,265.37,789.25,257.79Zm-66.42-53.74c.62-15,10.25-27.35,22-35.8.55-.38,1.13-.74,1.69-1.11a3.92,3.92,0,0,0,.84-.19c23.43-10.19,51.31-9.47,69,10.79,13.43,15.35,14.65,37.78,4.06,54.92-9.35,15.14-28,26.13-45.68,26-16.38-.07-31.75-9.74-41.5-22.43A49.77,49.77,0,0,1,722.83,204.05Zm51.63,46.13c12.92.25,25.69-6.92,34.51-16a38,38,0,0,0,2.9-49.68c-12.85-17-36.66-18.85-55.36-11.79-1.11.42-2.2.88-3.3,1.33a2.63,2.63,0,0,0-1.63.31c-10.35,6.7-18.57,15.93-20.69,28.38-1.81,10.62,2.31,21.38,8.64,29.75A45.29,45.29,0,0,0,774.46,250.18Zm-40.18-46.42c1-11.63,8.9-20.7,18.15-27a2.71,2.71,0,0,0,.66-.18c18.29-7.9,39.92-7.94,54.08,7.74C818,196.3,819,214,810.6,227.6c-6.57,10.61-19.2,18.34-31.4,20-14.06,2-27.84-6-36.41-16.6A38.55,38.55,0,0,1,734.28,203.76Zm40.17,4.67V226c-2.84-.8-5.78-2.05-8.34-2.33-1.79-.2-3.6,2.39-1.21,2.65,3.38.37,6.47,1.52,9.55,2.21v10.34c0,.54,3.54,0,3.54-.94V229a12.43,12.43,0,0,0,6.22-1.3c5.72-2.85,10-10,5.59-15.5-2.89-3.62-7.36-5.06-11.81-6.22V189.72a36.29,36.29,0,0,1,6,.64c1.8.33,3.57-2.22,1.21-2.65a37.49,37.49,0,0,0-7.17-.65v-7c0-.54-3.54,0-3.54.95v6.35a15.85,15.85,0,0,0-6.67,2.46c-4.64,3.19-7.27,9.85-2.76,14.31C767.42,206.48,770.9,207.53,774.45,208.43ZM778,226.35v-17a24,24,0,0,1,5.29,2,9.68,9.68,0,0,1,4.9,5.36c1.4,4.33-5.11,9.37-8.55,9.9a8.89,8.89,0,0,1-1.64.07Zm-8.92-34.13a10.17,10.17,0,0,1,5.38-2.29v15.16c-1-.26-1.89-.52-2.78-.82C766,202.37,764.3,196.56,769.07,192.22Zm-296,99.53c10.76,8.33,23.79,14.23,37.35,15.81,3.43.4,18.51,1.31,19.76-3.46,1.32-5.06-.48-12-1.05-17.07-1.1-9.88-2.47-19.73-3.86-29.57-1.2-8.5-3.14-17.2-3.84-25.8,3.56,1.09,7.68,3.05,10.9,4.22q13.68,5,27.35,10c8.19,3,16.39,5.95,24.63,8.78,2.53.87,7.33,3.52,9.95,1.55s4-7,5.1-9.78a48.48,48.48,0,0,0,2.83-13.2,59.53,59.53,0,0,0-3.91-25.63c-6.79-18.3-21.65-32.74-39.24-40.72-25-11.38-53.76-7.42-78.45,2.84a5.57,5.57,0,0,0-2.47.39c-21.58,13.75-37.95,34.48-38,61C440.05,255.31,454.5,277.31,473.12,291.75Zm-4.59-112.31a95.64,95.64,0,0,1,9.85-7.37,2.88,2.88,0,0,0,1.14-.24c25.65-11.21,54.48-14.55,80.2-1.8a72,72,0,0,1,37.38,45.86,54.12,54.12,0,0,1,0,27.08,45.92,45.92,0,0,1-4.86,11.51c-.07.12,2.72,1.09.08.3-1.26-.38-2.52-.8-3.77-1.22-17.26-5.81-34.31-12.3-51.44-18.53-5.14-1.87-11-5-16.49-5.76-.72-.09-2.95.26-2.89,1.32.82,14.51,4.26,29.22,6.16,43.63,1.11,8.42,2.25,16.87,2.79,25.35.11,1.73.84,4.84-.92,5.4-7,2.25-15,1-21.92-.72-26.55-6.75-49.17-29.43-57.3-55.34C438.42,222.85,448.44,196.93,468.53,179.44Zm93.14,78C556.1,255,550.55,252.41,545,250c-2.31-1-5.44-2.92-8.08-2.74a1.9,1.9,0,0,0-1.82,1.56c-.53.3-.84.68-.58,1,1.44,2,1.49,6.09,1.91,8.41,1.12,6.25,2.09,12.52,3.12,18.78,2.28,13.91,4.51,27.9,8,41.56.06.23.3.36.63.41a2,2,0,0,0,1.42.14c11.18-2.33,21.63-9.41,30.33-16.52,8.89-7.25,18.27-16.05,22.41-27.06.68-.61.89-1.42-.26-1.77C588.19,269.52,574.88,263.43,561.67,257.48Zm16.66,43.29c-7.86,6.6-17.36,13.27-27.49,15.88-3.51-13.85-5.74-28-8.05-42.12-1-6.09-2-12.19-3.06-18.27a42.19,42.19,0,0,0-1.08-5.95c2.13.73,4.71,2.3,6.21,3,5.42,2.39,10.8,4.87,16.19,7.31,12.35,5.56,24.82,11.17,37.75,15.26C595,285.92,586.38,294,578.33,300.77Zm134.19,70.51c.9,1.65-2.47,3-3.24,1.56-6.17-11.32,11.65-17.37,19.06-21,1.8-.89,3.74,1.05,1.57,2.12C724,356.85,707.51,362.07,712.52,371.28Zm30.34-2a19,19,0,0,0,2.74-4.59c.33-.66,1.41-.92,2.06-1,.19,0,1.76-.18,1.44.45a20.66,20.66,0,0,1-3,5,3.76,3.76,0,0,1-2.37.87C743.34,370,742.29,369.87,742.86,369.27ZM710.45,349.9,704.69,347c-.75-.38-.17-1.08.32-1.38a2.88,2.88,0,0,1,2.5-.33l5.76,2.88c.75.37.17,1.08-.31,1.38A2.91,2.91,0,0,1,710.45,349.9Zm4.85-17.08c-1.52-1.44,1.54-3.21,2.72-2.08,3.08,2.92,7.1,4.52,11.16,5.57a1.07,1.07,0,0,1,.48,1.77,2.43,2.43,0,0,1-2.51.67C722.88,337.64,718.54,335.9,715.3,332.82Zm33.61,14.9a19.34,19.34,0,0,1,15.4,9.16c1,1.6-2.35,3-3.23,1.58a16.67,16.67,0,0,0-13.38-8.1C745.31,350.28,747.16,347.67,748.91,347.72ZM895.5,613.53c.71-27.07,1.3-54.56-2.9-81.39-3.3-21.12-12.41-38.17-29.29-51.7-18.4-14.73-41.81-21.6-63.13-30.85a1.66,1.66,0,0,0-1-.06c3-3,1.56-5.79,0-9.44-2-4.63-4.58-9.92-7.85-13.83a.6.6,0,0,0-.4-.21,65.67,65.67,0,0,1,1.46-8.36,12,12,0,0,1,1.5-3.05c.77-.95,1.69-2.06,2.69-3.27,2.81-2.93,6.29-5.65,8.52-8.12a115.32,115.32,0,0,0,20.48-31.09,55.46,55.46,0,0,0,4.81-25.92c20.09.16,29.47-20.11,18.84-36.9-10.23-16.15-30.38-19.89-44-7.66a7.49,7.49,0,0,0-2.38,1.93,5.56,5.56,0,0,1-1.71,2c-42.2-23.89-94.23,9.2-109.84,51.89-6.58,18-11.83,41.78,3.21,56.88,6.74,6.76,17.17,9.95,21.17,19a34.92,34.92,0,0,1,1.92,5.83c.07.28.14.56.2.85a2.14,2.14,0,0,0-.51.3,1.51,1.51,0,0,0-.41.5c-1.4,3-2.94,6-4.51,8.91-43.14.39-84.53,19.75-127.92,14.41a4.32,4.32,0,0,0-2.73,1.2l.14-.22c6.48-10.29,9.1-22.51,12.84-33.93,0,0,0,0,0-.07a50.66,50.66,0,0,0,14.21-2.38c11-3.75,16.79-12.75,20.32-23.41,2.71-8.21,4.83-21.12-1.39-28.33-6-7-18.92-5.91-27-5.5-1.26.06-3.77,2.07-1.39,1.95,7.88-.4,18.13-1.28,24.54,4.34s4.06,17.25,2.53,24.53c-2.17,10.38-7.55,20.66-17.89,24.65-9.29,3.59-20.65,2.14-30.43,2.08.11-.09.21-.2.31-.29,1.48-1.27-2-1-2.78-.35-8,6.94-33.64,40-16.05,47.68l.05,0a.69.69,0,0,0-.18.25c-6.7,18.31-17,35.08-23.38,53.59-3.33,9.69-7.13,23.48-4,34-9.33.14-18.89.92-28-1.18-10.83-2.48-19.19-10.32-24.66-19.66-6-10.31-7.26-22.58-4.56-34.07C477.72,497,486.3,486,494.09,476.56c15.06-18.32,33.63-33.56,51.79-48.67,6.62-5.51,13.61-10.64,19.1-17.32a98,98,0,0,0,14.4-22.89c.55-.29,1-.71.93-1.22,0-.36,0-.7,0-1a.86.86,0,0,0,0-.39c.24-9,6.46-15.78,13.93-20.26a33.21,33.21,0,0,1,13.65-4.38c8.28-.86,2.55,5.93-.58,8.91-1.54,1.47,1.94,1.65,2.89.75,3-2.82,5-4.94,5.8-8.57a.81.81,0,0,0,.28-.91s1-2.25,1.22-2.83c.92-2.14,1.87-4.28,2.81-6.41.78-1.79,1.56-3.58,2.32-5.38.13-.31.36-.73.55-1.16l0,.05c1.19,1.17,4.21-.64,2.71-2.12-.27-.26-.51-.54-.76-.81,16.31.86,32.2-6.51,44.47-17.42,14.21-12.63,26.86-33.47,22.8-53.18a25.49,25.49,0,0,0-2.88-7.64,26.78,26.78,0,0,1,10,12.76c3.49,9.55,1,20.39-2.9,29.4-9.11,21.34-30.55,40.07-54.33,41.35a42.49,42.49,0,0,1-13.86-1.76c-1.61-.46-4.19,1.86-2,2.48,1.49.43,3,.77,4.49,1.05-4.28,7.18-8.27,14.4-11,22.33-.51,1.48,3.09,1.06,3.58-.33,2.65-7.63,6.56-14.6,10.68-21.5,18.1,2.13,35.89-6.08,48.88-18.92,13.39-13.23,25.4-33.54,20.66-53-2.39-9.8-9.63-16.24-18.33-19.18-7.59-7.38-19.61-9.81-30.29-7-17.32,4.63-30.61,20-39.07,35-8.64,15.38-16.26,40.07-1.75,54.43.31.3,1.25.14,2.06-.16,1.32.32,2.65.58,4,.79.34.47.7.94,1.08,1.4a4.31,4.31,0,0,0-.78.31l0,0c-.77.43-.83.82-.55,1.1H620c0,.14-1,2.3-1.25,2.91-.92,2.15-1.87,4.29-2.81,6.43-.7,1.59-1.38,3.17-2.06,4.76-16.08-1.65-36.37,10-37.07,27.15-4,9.92-10.27,19.06-17.29,27.06-7.6,8.65-18.13,15.52-26.92,22.94-18.57,15.69-37.48,32.34-51,52.77a98.93,98.93,0,0,0-5.23,8.81l-.24,0H325.53a1.88,1.88,0,0,0-.44.08c-.57-1.1-3.46-.44-3.46.78V692.6c0,1.66,3.56,1,3.56-.37V498.39H473.8a7.75,7.75,0,0,0,2.26-.79,53,53,0,0,0-6.25,23c-.33,11.3,4.19,22,10.85,31,12.65,17,33.69,15.21,52.37,15.09a19,19,0,0,0,10.13,10.07c13.07,5.84,21.56-1.91,27.14-14.28,1.91-.12,4.66.06,6,0,5.3-.12,10.61-.15,15.91-.17,10.69,0,21.37,0,32.06,0-4.23,14.84-6.54,29.89-8.31,45.28s-3.43,31-4.25,46.55c-.78,14.71-1.22,30.17,2.47,44.54.08.33.79.34,1.55.19,1-.21,2.1-.7,2-1.14a103.29,103.29,0,0,1-2.89-22.83q-.06-2.6-.06-5.19c0-4.93.18-9.85.39-14.7.68-15.67,2.39-31.29,4.17-46.87,2.09-18.26,4.95-36,10.6-53.54,6.05-18.82,16.53-36,21.34-55.25.17-.72-3.28-.23-3.49.64-4.8,19.2-15.14,36.5-21.34,55.25-.5,1.51-1,3-1.41,4.55-11.81,0-23.62-.06-35.44,0-5.32,0-10.65.07-16,.23-.68,0-1.47,0-2.28,0,7.22-17.86,9.08-43.45,10-53.08,1.19-12.77,1.87-25.62,1.88-38.45,0-.63-3.54-.1-3.54,1a425.11,425.11,0,0,1-2.75,46.92c-1.59,14.17-3.4,30.43-9.3,44.13a5,5,0,0,0-.62.26c-1.25.67-1.1,1.56-.42,2a58.17,58.17,0,0,1-4.24,7.52c-5.1,7.52-11.88,8.08-19.41,3.31s-8.78-14.28-8.24-22.44c1.42-21.44,13.05-42.29,22.14-61.3,2-4.18,4-8.37,5.71-12.7l0-.09c.16,0,.31,0,.47.05,7.25,1,13.88-4.74,17.91-10.51.26-.36.51-.73.74-1.1-.14.25,0,.45.57.52,1.09.14,2.19.24,3.29.35,42.62,4.08,83.19-14.38,125.62-14.71l.25,0c-3.78,7.08-7.58,14.17-9.87,21.89-.31,1.05.56,1.64,1.56,1.58,8.18-.54,14.2-5.8,20.17-10.9A66.71,66.71,0,0,0,736.09,483c.83.85,4.07-.68,4.89-1,9.91-3.77,19.49-8.72,28.86-13.66s19.63-9.94,27.58-17.09a1.07,1.07,0,0,0,.68.61c10.28,4.46,21,8.45,31.31,13,10.6,4.66,20.85,9.91,30,16.84a84.41,84.41,0,0,1,14.44,13.82c16.79,20.55,17.58,49.62,18.31,74.94.41,14,.18,27.92-.16,41.87-.15,5.8-.32,11.59-.47,17.38,0,1.16-.39,4.19.14,5.09a.44.44,0,0,0,.5.25,24.21,24.21,0,0,1-3.29.39c-1.16.11-2.33.18-3.5.27-19.32,1.56-39,1.28-58.37.54l-4-.16q-7.53-.31-15-.95l-2.93-.27c-2.34-.22-4.67-.51-7-.84-2.86-.41-3.3-2-3.94-4.51-1.25-5-1.16-10.39-1.15-15.49,0-2-.19-4.36-.05-6.55,31.89-.32,64.43-4.66,95.8,2.88,1.83.44,3.52-2.16,1.19-2.72-31.63-7.6-64.45-3.25-96.6-2.91a.61.61,0,0,0-.21-.43c.24-.26.3-.54,0-.79-.73-.69.68-7.4.81-8.56.67-6.08,1.42-12.15,2.13-18.22,1.6-13.57,3.26-27.19,3.9-40.84.07-1.49-3.48-.77-3.54.43-.69,14.65-2.54,29.24-4.25,43.79-.71,6-1.46,12.1-2.1,18.16-.13,1.15-1.27,5.65-.23,6.63h0c-1.07.46-1.39,1.76-.53,2.32-1,6,0,13.41.58,19.14.3,2.88.68,6.76,2.92,8.88a6.79,6.79,0,0,0,3.36,1.44c2.58.49,5.72.39,7.6.58,23.35,2.42,47.16,2.14,70.59,1.33,3.08-.1,6.31-.09,9.53-.24a.9.9,0,0,0-.21.55c.19,20.55-8.92,38.45-25.22,50.86-15,11.42-35.76,18.14-54.62,16.71-21.1-1.61-40.84-14.17-57.69-26-14.79-10.4-28.46-22.23-42.28-33.85l-4.94-4.13-1-.86a1.61,1.61,0,0,0-1.25-.22c-5.95-4.72-16.61-5.74-23.48-7.49-5.66-1.44-11.32-2.9-16.87-4.73-2.26-.75-7-2-9.18-4.23a21.54,21.54,0,0,0,5,1.48c3.77.69,7.61.54,11.41.9,7.18.66,13.86,4.57,20.91,6,1.82.38,3.54-2.22,1.19-2.71-8.1-1.68-15.6-6.21-24-6.25-2.83,0-15.78-.37-13.94-4.84a2.44,2.44,0,0,1,.1-.24l0,.06a3.76,3.76,0,0,0,1.05,1.06c3.93,2.66,10.12,1.22,14.56,1.05,9.11-.36,16.89,2.4,25.76,3.48,1.52.18,3.7-2,1.31-2.24-6.77-.83-13.11-3.38-20-3.64-3.43-.14-6.9.23-10.32.28-.59,0-1.19,0-1.78.06l-1.44.1q-5.82,1.41-2.19-6.39a1,1,0,0,1,.07-.15c3.51-1,7.55-.94,11.51-.77,2.38.11,4.73.24,6.92.18a227,227,0,0,0,22.83-2.21c10.39-1.36,24.52.89,33.23-6.2,3.9-3.19,6.63-7.24,9.28-11.48,1.43-2.29,2.83-4.59,4.35-6.82a23.47,23.47,0,0,1,3.52-4l6.18-.42a9.36,9.36,0,0,1-.74,2.59c-1.64,4.21-4.33,8.13-6.22,12.24a63.48,63.48,0,0,0-5,16.5c-1.79,11.4,10.32,16.41,19.42,19.26,12.57,4,26,4.93,38.76,8.38A129.73,129.73,0,0,1,839,658.81c1.09.75,4.31-.79,2.79-1.85A136.4,136.4,0,0,0,801,638.07c-1.61-.45-3.25-.86-4.89-1.24-14-3.23-29.06-4-42-10.34-3.62-1.76-8.09-4.52-9.64-8.38-1.23-3.05,0-7.3.68-10.38a.19.19,0,0,1,0-.07,53.76,53.76,0,0,1,1.8-6.16,91.77,91.77,0,0,1,6.77-14.45c1.39-2.48,3.56-6.11,1.81-8.87-1.64-2.58-6.94-.64-8.82.38-11.37,6.13-12.1,22.62-25.17,26.91-4.47,1.47-9.58,1.26-14.22,1.42-4.4.15-8.74.79-13.11,1.37a181.61,181.61,0,0,1-27.46,1.94c-5.18-.11-10.66-.35-15.49,1.83a7.66,7.66,0,0,0-3.92,4.82,2.28,2.28,0,0,0-2.22.65c-1.45,1.91-1.67,3.43-1.16,4.65-.86.25-1.64.87-1.51,1.68.52,3.35,4.57,5.62,9.09,7.23s9.54,2.54,12,3.2c6.14,1.68,12.34,3.14,18.49,4.81,1.4.38,3.07.74,4.78,1.2,2.84.75,5.77,1.76,7.59,3.52a1.89,1.89,0,0,0,1.52.36c12.23,10.16,24.26,20.55,36.84,30.24q7,5.4,14.28,10.44c.78.54,1.55,1.1,2.35,1.63a184.45,184.45,0,0,0,23.5,13.74c11.45,5.45,23.69,9.18,36.08,8.75,39.14-1.33,78.65-28.34,78.27-70.43a1.08,1.08,0,0,0-.11-.42,41.33,41.33,0,0,0,5.84-.93c2.61-.63,2-3,2-5.22C895.15,625.81,895.34,619.67,895.5,613.53ZM617.41,338.78a1.61,1.61,0,0,0-.54,0c-12.54-13.47-6.26-35.3.93-49.85,8.29-16.77,25.35-38.13,46-37.6a26.16,26.16,0,0,1,14.95,5.43,36.18,36.18,0,0,0-14.2.94c-17.87,4.91-32,20.81-40.67,36.41-7.24,12.93-12.82,31.5-5,45.06C618.38,339.05,617.89,338.92,617.41,338.78Zm11.74-47.36c9.63-16.15,27.87-34.43,48.34-32.27a25.37,25.37,0,0,1,5.12,1.09,27.42,27.42,0,0,1,4.25,6.09c4.43,8.72,3,19.28.08,28.18-7.44,22.32-28.93,43.33-52.83,46a39.78,39.78,0,0,1-10.4-.3C613,326.2,621.16,304.82,629.15,291.42Zm-69.87,180.9c-5.35-5.84,1.15-17.69,4.07-23.13,3.34-6.27,7.61-12.95,12.77-18.14l.29,0c4.94,0,10.1.27,15.23.2a1,1,0,0,0-.47.52c-2.9,8.86-5.25,17.85-9,26.42C579,465.66,568.79,482.72,559.28,472.32Zm237.44-98.83a22.58,22.58,0,0,1,3.86.42,4.71,4.71,0,0,1,3,4.56c.28,4.67-2.71,9.62-5.17,13.32s-5.83,7.86-9.93,10a3.72,3.72,0,0,0-2.18.62c-2.89-.2-3.52-5.31-3.63-7.77,0-.58-.93-.69-1.81-.48,2.53-7.29,5.41-14.42,10.75-19.84A16.31,16.31,0,0,0,796.72,373.49Zm-105.79-1.7a2.22,2.22,0,0,0-.37,0c.66-2.75,1.38-5.42,2.08-7.92,4.75-17,13.6-30.31,26.42-42.35A91.45,91.45,0,0,1,734,310.13c0,2.7.48,18.21,13.86,21.18,1.49.33,3,.63,4.58.89q1,.26,2.1.48a76.5,76.5,0,0,0,11.44,1c2.14.14,4.17.24,6,.31a72.87,72.87,0,0,1,7.23.92c1.52.27,2.17.52,2.38.95l0,1.08c-.14.53-.38,1.23-.56,2.17a68.17,68.17,0,0,0-.75,21.24h0c-4.47,14.68-10,37.79-29.27,35.06-11.08-1.57-21.41-9.56-31-14.82C710.94,375.7,701.38,371.62,690.93,371.79Zm43.35,29.74c-2.16,2.09-4.9,3.9-8,3.71-3.89-.24-4.36-4.87-4.16-8.1A63.79,63.79,0,0,0,734.28,401.53Zm-17.46,26.64c7.29,2.44,15.61,2.91,23.63,2.05a47.7,47.7,0,0,0,5.76-.72,52.33,52.33,0,0,0,7.47-1.95q3.09-.93,5.87-2.07c12.07-5,16.08-15.93,19.91-27.2.67,3.5,2.45,6.18,6.11,6.13a13.35,13.35,0,0,0,2.34,8.64c.27.43,1,.48,1.72.31l.7,1.7c-2.93,5.15-1.72,11.3-4.35,16.43a.83.83,0,0,0-.1.43,217.43,217.43,0,0,1-25.56,16.65C750,454.38,738.21,460.36,726.19,462l-.09-.2c-.12-.28-.6-.33-1.15-.25a2.1,2.1,0,0,0-2.21-.45c0-10.11.49-22.31-4.82-31.26A17,17,0,0,0,716.82,428.17Zm-11.29,43.91c3.12-9.42,8.35-18,12.82-26.8l.24-.46c.33,2.69.48,5.42.55,8.13.08,3.06.06,6.1.06,9,0,.63.62.85,1.34.82C716.05,466.68,711.38,470.9,705.53,472.08Zm33.14,9.53c-.37.08-.33,0,0,0Zm58.4-33c-5.05,7.09-15.43,11.69-22.79,15.8-9.29,5.18-18.85,9.92-28.55,14.28-1.53.69-3.06,1.35-4.6,2l-1.86.73-.35.12c-2.77-1.47-5.53-6.57-7.18-9a61.39,61.39,0,0,1-4.84-9.05c10.27-1.67,20.05-6.05,29.28-10.7,5.63-2.83,11.17-6,16.55-9.35,2.3-1.44,4.58-2.94,6.82-4.47q5.57-3.81,10.84-8c1.06,1.79,2,3.68,3,5.44C794.74,439,799.17,445.67,797.07,448.61ZM651.14,567c2.46,2.6.63,6.6,1.32,9.67-2.92,1.77-7.53,5.16-6.66,8.39.7,2.61,5.57,6.23,7.72,7.78,2.94,2.12,8,3.54,11.36,1.64,1.64-.92,2.23-3.17,4.39-3.07a51,51,0,0,1,6.19.92c5.84,1.08,3.78,5.07,3.8,8.81,0,1.06,1.3,1.08,2.07.89,5.62-1.4,20,1.26,22.95-5.47.43-1-.24-2-.74-2.81-2.52-4.12,2.27-5.47,5.38-6.89.17-.07.19-.15.18-.2a3.83,3.83,0,0,0,1,1c.83.74,1.59,1.56,2.37,2.35,1,1,2.62,3,4.15,3.32,3,.61,4.74-2,6.68-4s7.91-5.86,7.09-9.1c-.22-.89-2.84-2.73-5-4a10.27,10.27,0,0,0-3-1.5c.22-.45.44-.86.67-1.25,1.91-3.3,4-4.47,8.61-4.42,2,0,3.88.15,5.54-1.12,4.33-3.32,5.36-17.32-2.26-17.21-3.53.05-5.89.79-7.38-3.15.18.47.28-2,.31-3,0-.12,0-.22,0-.28a6.72,6.72,0,0,1,2.43-5.23l1.2-1.2a5.78,5.78,0,0,0,1.61-4.37c-1-5.89-10.39-15.64-16.9-15-3.82.38-5.81,3.47-7.61,6.47-2.42,4-6,1.86-9.21.53-2.42-1-1.25-3-1.59-5.78-1.25-10.46-12.45-9.68-20.2-7.6-4.21,1.12-5.14,8.29-4.28,12.36a15.29,15.29,0,0,1-4.16,1.64l-1,.08c-.68-.89-1.4-1.75-2.15-2.59-1.5-1.7-5.18-5.93-7.7-5.47-3.91.72-7.35,6-9.67,8.83-3.61,4.37-3.28,5.08.65,8.79a28.74,28.74,0,0,0,3.64,2.85c2.3,1.56.71,2.21-.45,4.93-2.54,6-7.7,3.91-12.87,4.82-.74.13-2.2.59-2,1.63.6,2.7-1.86,14.7,1.35,15.35C643.22,566.21,647.33,563,651.14,567ZM643,562.79c-2.57.31-1.84.3-1.74-2.27,0-.3,0-.61,0-.92a60,60,0,0,0,.17-8.27q0-.47-.09-.93c.91-.07,1.82-.1,2.73-.13a29.21,29.21,0,0,0,7.16-.77c4-1.13,5.11-7.61,7-10.66.36-.57-.12-1-.63-1.22-2.47-.88-9.43-5-7.71-7.76a42,42,0,0,1,7-8.08l1.15-1.07c.85-.79.86-.68,0,.34a20.82,20.82,0,0,1,4.4,3.83l.19.2c.91.95,1.76,2.78,2.89,3.45,1.56.93,4.3.05,6.6-1,1-.46,2-.95,2.65-1.33a1.64,1.64,0,0,0,.38,0c1.06-.13,2.17-.8,1.88-1.63-1-3.06-.55-10,3-10.69,5-1,10.77-1.7,13.24,3.85,1.25,2.82.29,5.79,1.07,8.51.5,1.72,8,3.57,9.54,3.79,3.84.54,6.06-1.76,8-4.81a12.55,12.55,0,0,1,2.15-2.76c1.23-1.1,2.58-1.33,4.5-.41.27.13.55.28.85.46a24.64,24.64,0,0,1,3.26,2.4,45,45,0,0,1,3.36,3.26,18.2,18.2,0,0,1,2.26,2.88,7.06,7.06,0,0,1,1.21,3.87c-.06,2.2-3.08,3.76-4.31,5.44s-1.8,6.58-1,8.74c1.47,3.88,3.78,4.44,7.46,4.09l.74-.08a3.55,3.55,0,0,1,2.89.69c1.6,1.42,1.3,4.57,1.12,6.65a27.07,27.07,0,0,1-.74,4,5.13,5.13,0,0,1-.35,1,2.12,2.12,0,0,1-1.87,1.27,22.31,22.31,0,0,1-2.32,0c-5-.06-7.66.77-10.53,4.9-1.82,2.63-2.79,3.94.16,5.57,2,1.11,4.15,2,5.81,3.66,1.3,1.3-4.37,5.83-5.15,6.63s-1.84,1.87-2.77,2.8l-.15.16a1.47,1.47,0,0,0-.41.59,2.69,2.69,0,0,0-.79-.92v0c-1.63-1.41-3-3.06-4.65-4.5-2.54-2.27-4.05-.74-6.87-.11s-7.53,2.9-7,6.43c.23,1.49,1.08,2.47,1.73,3.72.11.21.21.43.31.66.27.67-.9,1.18-2.52,1.56a59,59,0,0,1-7.6,1c-1.68.15-3.39.23-5.1.37-.91.07-1.82.16-2.72.3.06-1.22.17-2.45.14-3.6-.07-2.35-.77-4.36-3.85-5.27-4-1.17-9.1-2.39-13.14-1a4.76,4.76,0,0,0-2.18,2.14,2.65,2.65,0,0,1-.87.89,3.65,3.65,0,0,1-3.1.1,20.3,20.3,0,0,1-6.38-4.16,24.37,24.37,0,0,1-3.16-3.78,3,3,0,0,1-.28-.48c-.6-1.36.17-2.73,1.34-3.9a17.84,17.84,0,0,1,3.79-2.71c.42-.23,1.26-.74,1-1.38a11.32,11.32,0,0,1-.53-3.91,17.44,17.44,0,0,0-.51-5.6,5.51,5.51,0,0,0-2.86-3.11,13.15,13.15,0,0,0-4.92-1.22,22.14,22.14,0,0,0-4.38.27Zm61.45,8.89c7.38-6.19,8.18-16.61,2.61-24.19-6.4-8.67-18.32-8.14-27.38-4.7a2.71,2.71,0,0,0-1.29.35,28.72,28.72,0,0,0-3.38,2.69,21.59,21.59,0,0,0-3.91,4.85c-3.45,5.9-3.29,13,1.78,19.62C680.87,580.88,695.14,579.46,704.4,571.68Zm-31.49-17.89a19.06,19.06,0,0,1,6.5-8.74,5.32,5.32,0,0,1,.46-.37l.1,0c5.57-2.32,11.4-3,16.55-1A17.67,17.67,0,0,1,703,548c4.71,4.89,5.32,12.38,2.39,18.29a16.9,16.9,0,0,1-4.71,5.88c-7.54,5.9-19.16,3.82-25.36-4.35A14.67,14.67,0,0,1,672.91,553.79ZM609,695H323.21c-1.68,0,1.66-1.32,2.32-1.32H611.36C613,693.67,609.7,695,609,695ZM342.31,640.14a11.8,11.8,0,1,0,18.28-9.85l.07,0L383,579.25l-4.48-2-22.3,51.07.75.33a11.41,11.41,0,0,0-2.82-.36A11.81,11.81,0,0,0,342.31,640.14Zm11.8-6.91a6.91,6.91,0,1,1-6.91,6.91A6.92,6.92,0,0,1,354.11,633.23Zm76.27,16.59a12,12,0,0,0-7.75-1.14l-29.95-72a10.84,10.84,0,0,0,4.93-8.62.86.86,0,0,0,0-.23s0,0,0-.07c-.74-13.76-21.55-12.56-22.26.65-.32,5.85,5.31,10.64,10.94,10.34a13.24,13.24,0,0,0,3.1-.54q14.91,35.84,29.8,71.67a10.56,10.56,0,0,0-5.73,9.13c-.31,5.83,5.32,10.82,11,10.51,6-.32,10.8-4.43,11.27-10.49a.7.7,0,0,0,0-.29,1.38,1.38,0,0,0,0-.36,10.38,10.38,0,0,0-3.64-7.4,2.46,2.46,0,0,0,1.38-.68q16.83-22.1,33.67-44.2a11,11,0,0,0,9.27,3.11,14.14,14.14,0,0,0,6.27-2.57l23.45,34.49a10.52,10.52,0,0,0-2,5.73c-.74,13.8,21.54,12.72,22.25-.43a.68.68,0,0,0,0-.14.5.5,0,0,0,0-.12,9.86,9.86,0,0,0-2.88-6.77l25.13-36.3c6.41,3.06,16.83-.31,17.31-9.2,0,0,0-.07,0-.11s0-.09,0-.13c-.73-13.64-21.54-12.26-22.24.7a8.77,8.77,0,0,0,2.67,7.22,1.34,1.34,0,0,0-.41.36L521.16,637.7a12.62,12.62,0,0,0-12.52,1l-23.28-34.24a.66.66,0,0,0-.37-.25,10.66,10.66,0,0,0,1.81-5.51c-.74-13.69-21.56-11.85-22.25,1a8.24,8.24,0,0,0,1.15,4.63,2.19,2.19,0,0,0-1,.59ZM386.1,576.33c-4-.21-6.57-4-7.15-7.58a7.63,7.63,0,0,1,7.9-8.67c4.34.23,6.89,4.49,7.19,8.37C393.76,572.9,390.89,576.59,386.1,576.33ZM432.16,659c-.24,4.46-3.19,8.13-8,7.87-4.19-.23-6.94-4.3-7.15-8.14a7.57,7.57,0,0,1,8-7.88C429.19,651.06,432,655.13,432.16,659ZM555.72,585.9c4.1.67,6.41,4.77,6.65,8.56-.3,4.59-3.34,8.67-8.48,7.84-3.75-.61-6-4.21-6.61-7.66A7.58,7.58,0,0,1,555.72,585.9Zm-39.56,52.55c4.1.67,6.39,4.71,6.65,8.5-.3,4.6-3.39,8.66-8.5,7.82-3.74-.61-6-4.16-6.6-7.61A7.58,7.58,0,0,1,516.16,638.45Zm-37.43-46.76c3,1.53,4.36,4.76,4.52,7.92-.29,5.53-5,9.88-10.63,7-3-1.53-4.36-4.76-4.53-7.92A7.3,7.3,0,0,1,478.73,591.69Zm107.55,44.67H547.44c-2.41,0-1.66-2.51.34-2.51h38.84C589,633.85,588.28,636.36,586.28,636.36Zm-.54,14.06H546.9c-2.39,0,.2-1.86,1.42-1.86h38.84C589.55,648.56,587,650.42,585.74,650.42Zm1.86,12.72c1.75,0-1.53,1.48-2.29,1.48H546.46c-1.75,0,1.53-1.48,2.29-1.48Zm-184-146.84h-16c-2.4,0-1.75-2.65.3-2.65h16C406.29,513.65,405.63,516.3,403.59,516.3Zm-35.26.51a1.84,1.84,0,0,1,0-3.67H381a1.84,1.84,0,1,1,0,3.67ZM348,515a1.83,1.83,0,0,1,1.84-1.83h10.73a1.84,1.84,0,1,1,0,3.67H349.79A1.84,1.84,0,0,1,348,515Zm57.14,10.11a4.88,4.88,0,0,1-2.5.67H390.21c-.69,0-.76-.4-.2-.75a4.86,4.86,0,0,1,2.5-.67h12.38C405.58,524.33,405.65,524.74,405.09,525.08Zm-40.44-1.87h19.81a1.84,1.84,0,0,1,0,3.67H364.65a1.84,1.84,0,1,1,0-3.67ZM348,525a1.83,1.83,0,0,1,1.84-1.83h6.93a1.84,1.84,0,1,1,0,3.67h-6.93A1.84,1.84,0,0,1,348,525Zm29.84,11.29c-2.41,0-1.61-2.44.36-2.44h25.77c2.41,0,1.61,2.44-.36,2.44ZM348,535.11a1.83,1.83,0,0,1,1.84-1.83h17.36a1.84,1.84,0,1,1,0,3.67H349.79A1.84,1.84,0,0,1,348,535.11Z" transform="translate(-76 -84.92)"/></svg>