<svg id="Layer_1" data-name="Layer 1" xmlns="http://www.w3.org/2000/svg" viewBox="0 0 1296.52 916.16"><defs><style>.cls-1{fill:#d73935;}.cls-2{fill:#fbc02d;}.cls-3{fill:#acc9d5;}.cls-4{fill:#0984e3;}</style></defs><title>pageTestimoni</title><circle class="cls-1" cx="337.02" cy="609.24" r="213.5"/><circle class="cls-2" cx="1148.02" cy="259.24" r="148.5"/><path class="cls-3" d="M214.5,884.5c84,40.81,225.29,97.43,407,112,150.83,12.09,532.34,42.68,691-209,90.21-143.1,90-348.24-2-491-199.91-310.39-773.29-232.95-887-33-79.14,139.16,67,364.51-38,442-20,14.73-98.74,60.92-191.5,94.5-23.8,8.62-55.69,19-56.5,35.5C136.46,856.65,187.08,875.54,214.5,884.5Z" transform="translate(-137.48 -88.26)"/><path id="color_2" class="cls-2" d="M1280.58,711.05l0,.32a5.43,5.43,0,0,0-.68.13Zm6.5,54c-2.51-17.36-9.77-33.9-9.23-51.65a1.2,1.2,0,0,1,.15-.56c-10.69,7.43-21.46,14.75-32,22.33-9.94,7.14-21,14.36-30.73,22.63l-12.54,12.37h87l-.75-4C1288,766.24,1287.21,765.89,1287.08,765.06ZM1303.54,664c-15.68-16.34-36.51-24.05-58.82-19.29,1.65,4.18,3.34,8.37,4.93,12.63,22.83,1.65,36.36,19.25,46.57,38.37.85,1.59-1.37,3-3.12,3,0,.05.05.1.08.14s.19-.08.31-.11C1309.26,695,1307.41,678.3,1303.54,664ZM1220,689.41c5.62-11.15,11.64-26.1,25-28.85-1-.25-1-.95-.54-1.65-5.93-15.81-14-31.23-14.71-48.43-.75-19.47,2.78-39.05-1-58.35-.28-1.42,5-2.68,5.25-1.4,3.83,19.43-.42,38.82,1,58.35.85,11.44,4.38,21.89,8.41,32.27,21.06-4.73,41.13.37,57.35,13.4-.65-2-1.26-3.93-1.76-5.58-7.27-24-10.92-49.92-14.64-74.73-1.79-12-3.36-25.89-7.54-38.41a190,190,0,0,0-11.13-20.4,41.5,41.5,0,0,0-4.65-4.63c-11.69-9.78-25.86-15.24-39.57-21.56-6.65,11.09-7.37,24.92-15.3,35.49-.92,1.22-4.18,2.43-5.09.59-2.43-4.93-6.19-8.6-11.24-9.44-5.39,33.24-1.62,66.86-1,100.3.63,34.73,1.83,69,6.16,103.54,3-2.94,5.76-6,8.47-9C1209.63,704.07,1215.86,697.67,1220,689.41Zm-16-169.07c5.72-10.37,6.87-22.8,13.55-32.73a125.76,125.76,0,0,1-14.85-8.24l-.5.79c.08.21.16.42.23.63.14.42-.5.9-1.38,1.27l-.06.1a22.47,22.47,0,0,1-4.14,8.63c-3,7.29-5.26,14.93-8.87,22A17.66,17.66,0,0,1,1204.06,520.34Zm54.39,142.78a38.2,38.2,0,0,0-8.33-2.08,1.44,1.44,0,0,1-.06,1.11C1252.08,662.31,1255.18,662.61,1258.45,663.12ZM1125,746.45c.94.2,1.87.36,2.82.5l-4.23-2.1C1123,745.47,1123.14,746.06,1125,746.45Zm-7.41-.61c.32-3.4,5.39-6.26,10.53-8.26l4-2.59a1.2,1.2,0,0,1-.55-.64c-10.32-30.61-4.59-65.81-1.94-97.23,3.22-38.22.66-77.13,6.27-115.11-4.25-7.4-10.77-10-19.13-5.27-.41.23-5.33,1.56-4.61.34a84.59,84.59,0,0,1,10.15-14.51c-3.25,1.67-6.51,3.34-9.76,5.17-11.75,6.61-16.12,18.42-19.26,30.91-6.81,27.05-15.42,54.47-19.21,82.31,14.64.19,29.85,8.64,39,20.47-.31-33-1.17-66.14,4.19-98.83.27-1.6,5.53-2.55,5.23-.75-5.88,35.84-4.24,72.22-4.09,108.39,4.85,10.78,4.59,23-4.49,34.12a2.84,2.84,0,0,1-1.48.88,68.94,68.94,0,0,1-21.65,28.44c.77.13,1.27.53,1,1.28-5.2,15.91-4.23,33.26-3.09,49.72a1.45,1.45,0,0,1-.17.79l26.83.86c5.73-9.41,19.43-10.87,29.64-14.12C1134.82,751.83,1117,751.85,1117.55,745.84ZM1111.93,679a27.5,27.5,0,0,0,2.59-23.82c-.82,0-1.46-.18-1.46-.66,0-1,0-2,0-3-6.74-14.53-23.58-26.12-39.56-26.45-.57,4.87-1,9.77-1.24,14.67C1091.17,645.34,1105.3,660.75,1111.93,679Zm25.37-163.06a4.6,4.6,0,0,1,1.55-.71c1.15-4.91,1.92-9.94,4.7-14.18-.73-3-1.09-6.07-1.75-9.1,0-.21-.13-.39-.18-.58-1.06.76-2.13,1.49-3.21,2.2,0,.42-.66,1-2,1.43-.18,0-.36.14-.55.2-1.62,1-3.27,1.91-4.92,2.82-5,3.95-9.12,10.44-12.21,15.7C1125.5,511.25,1132.2,511.38,1137.3,515.92ZM997,675.65A30.65,30.65,0,0,1,985,686.83c-13.85,6.89-29.9,3.15-43.3-4.16a23.14,23.14,0,0,1-2.28-1.29,86.87,86.87,0,0,1-10.15-7c-14.15-11.36-26.08-25.11-38-38.83,1.45,8.72-.12,18.67-1.5,26.23a192.65,192.65,0,0,1-13.51,44.35,1.49,1.49,0,0,1-.33.44c1.16-.42,2.51-.61,3.06-.13,20.13,17.49,49.37,21.5,75.16,20.24,11-.55,25-1.54,37.66-5a166,166,0,0,0,20.51-9.56,36.53,36.53,0,0,0,4.07-3.56c-6.12-10.92-12.52-23.12-15.89-35.53Zm-73.68-62c4.91,3.05,12.73,7,20,10.45C936.91,620.32,930.17,616.94,923.35,613.68Zm39.46-15.25h.89q-.47-.07-.9-.18A1.28,1.28,0,0,1,962.81,598.43Zm-86.72-50.9c-.12-1.42,5.17-2.4,5.25-1.41.36,4.13-1.41,7.64-3.62,11a2.63,2.63,0,0,1-1.13.87c4.25,3.73,7.51,9.54,9.13,14.38,2.18,6.54,2.13,16.45,7.74,21.11a.39.39,0,0,1,.15.38c20.83,12.76,45.12,20.46,64.81,34.94-.19-11.21-.87-22.41-.95-33.64v0c-1.25-10.25-3.89-20.35-4.1-30.71,0-1.51,5.24-2.33,5.25-1.41.21,10.37,2.85,20.47,4.1,30.71.13,2.76,13.16,3.25,14.94,3.36a92.93,92.93,0,0,0,16.06-.21c3.88-.94,8.22-2.12,11.48-3a26.45,26.45,0,0,0,2.89-1.51c-.27,0-.45-.12-.47-.26-1.87-21.46,3.8-49.82-9.45-68.57-12-17-32.95-23.51-52-29.92-1.24,9.64-6.55,19.92-10.83,28.15-4.47,8.58-10,19.6-19.31,23.79-20.12,9.09-13.83-38.83-15.75-48.17l-4.37,2.06c-8.68,7.55-19.9,11.13-28.94,18.47a32.34,32.34,0,0,0-3.59,3.43,23.21,23.21,0,0,0-2.54,3.88l-.47-.09c-6.36,9.19-8.86,21.32-9.14,32.46a20.31,20.31,0,0,1,6.21,4.57c3.66,4,6.53,9.19,10.45,13.06l1.55,1.33c-2.91-6.28-7.89-13-5.53-19.53,1.17-3.2,6.45-2.76,8.75-1.68.41.19.81.42,1.2.65A14.05,14.05,0,0,0,876.09,547.53ZM868.94,558l-.21-.13v.08Zm-139.29,34.2L727.21,576s-.73-1.44-2-3.66c.78,2.71,1.46,5.51,2.09,8.42C728.18,584.54,728.93,588.34,729.65,592.15Zm63.17,58.47c-16.65-7.94-27.72-23-41.6-34.62l-3-1.41c-1.77,8.9-4.44,18.52-8.8,26.27a2.35,2.35,0,0,1-.93.89c.35,1.62.67,3.24,1,4.86s-4.93,2.84-5.25,1.41C729.44,626.23,727,604,722.1,582.17c-2.55-11.25-5.26-21.33-14-29.63-7.33-7-16.07-12.29-23.32-19.22,2,4.82,3.73,9.67,5.29,14.34a171.89,171.89,0,0,1,6.17,22.56,2,2,0,0,1,0,.24c2.74,14.55,2.53,29.14-4.22,43.63a2.76,2.76,0,0,1-1.82,1c3.07,13,5.42,26,7.35,38.4a526,526,0,0,1,6.23,70.66c.27,16.06.41,32.69-2.81,48.5-.36,1.78-3.49,2.59-4.8,1.77-.38,2.25-.62,3.52-.62,3.52h38.67c-.26-55.52-5.86-110.48-19.43-164.42-.39-1.54,4.87-2.92,5.25-1.4a641,641,0,0,1,17.1,106.77,2.46,2.46,0,0,1,2.15.39c8.8,9.34,19,10.72,27.44.05a65.65,65.65,0,0,0,11.45-22c2.1-7,3-14.24,5.31-21.18.19-2.44.28-4,.28-4l11-21.7A3.24,3.24,0,0,1,792.82,650.62ZM600.42,760.2l.66-.3c-.27.07-.55.12-.82.18Zm37.27-101.84c-2-12.48-4.35-25.46-7.42-38.43-5.14-6.3-9.64-13.12-14.47-19.65-6.3-8.5-13.65-15-21.44-22.09-7.55-6.89-12-16.59-20-23-7.56-6-16.42-8.65-25.71-10.81a42.91,42.91,0,0,1-14.39-6.58c-13.48,15.9-30.09,34.1-33.82,54.9-3.3,18.42-1.38,37.35-2.7,56-1.53,21.5-5.19,42.89-6.35,64.41-.71,13.17.82,26.58,6.26,38.73,9,20.05,25.79,34.62,44.61,45.25,6.69,3.78,13.59,7.06,20.46,10.48,3,1.51,6.84,3,9.23,5.58,17.57-11.17,23.27-30.69,23.52-50.92-19.06-13.12-25.11-39.61-51.63-39.69-3.55,0,.15-2.91,2.07-2.91a40.63,40.63,0,0,1,17.92,3.8c0-23.1,4.7-46.24,6.24-69.23,1.3-19.35,5.19-53.75-14.28-66.12-2.38-1.52,2.34-4,4.1-2.85,18.84,12,16.93,42.57,15.89,61.78-1.45,26.48-7.23,53.13-6.6,79.69a36.06,36.06,0,0,1,6.39,6.18c7.52,9.24,13.62,19,23.22,26.14a5.34,5.34,0,0,1,1.85-.68c4-.6,12.56-6.67,17-3.76,6.91,4.46,6.82,13.56,6.16,20.86-.07.8-.17,1.59-.27,2.38a31,31,0,0,1,15.55-1.32c.64.12,1.27.26,1.9.4h0a1.56,1.56,0,0,1,0-.3,147.45,147.45,0,0,0,2.57-21.36c-.15-15.65-.52-37.87-1.43-59.32Q640.64,677,637.69,658.36Z" transform="translate(-137.48 -88.26)"/><path id="color_1" class="cls-4" d="M652,464.74c.31.6-.53,1.41-.95,1.66a20.32,20.32,0,0,1-7.1,2.74c-3.59.65-2-2.81.62-3.29l1.69-.72c-4.12-8.34-6.75-17.16-9.23-26.1-.58-2.08,4.67-3.49,5.25-1.41C644.91,446.92,647.63,456.11,652,464.74ZM619.8,446.66c-.63-2-.74-4.13-1.37-6.14s-5.81-.41-5.25,1.4c.63,2,.74,4.13,1.37,6.15C615.13,449.93,620.36,448.47,619.8,446.66Zm26.31-13.78c.62,2,.74,4.13,1.36,6.15s5.82.4,5.25-1.41c-.63-2-.74-4.13-1.36-6.15S645.55,431.07,646.11,432.88ZM641,421.45a8.82,8.82,0,0,1,1.58-.9,1.57,1.57,0,0,1,.28-.1,4,4,0,0,0,.57-.05,7.78,7.78,0,0,0,3.71-1c.83-.49.73-1-.27-1a19,19,0,0,0-9.86,3.05c-.8.51-.74,1,.28,1A7.19,7.19,0,0,0,641,421.45Zm-27.48,5.79a5.5,5.5,0,0,0,.57-.07,7.77,7.77,0,0,0,3.71-1c.83-.49.73-1.05-.27-1a19,19,0,0,0-9.86,3c-.8.52-.74,1,.28,1a7.19,7.19,0,0,0,3.71-1,9.53,9.53,0,0,1,1.58-.91A1.47,1.47,0,0,1,613.52,427.24Zm11.77,65c-7.61.45-8.41-8.27-8-14a2.31,2.31,0,0,1,1.68-1.81,2.6,2.6,0,0,1,.67-.69,4.08,4.08,0,0,1,3.74-.43,18.51,18.51,0,0,0,13.23.11c1-.38,2.68-.78,3.51.18s-.58,2-1.35,2.32-1.33.48-2,.69C635.43,484.37,632,491.84,625.29,492.23Zm.49-3.75c1.26-.18,2.57-2,3.16-3a21.43,21.43,0,0,0,2.3-5.72,26.29,26.29,0,0,1-8.74-.66,15.53,15.53,0,0,0,1,7.23C623.85,487.08,624.72,488.63,625.78,488.48Zm-60.84-12.37c-.93.87.8,1.18,1.33,1.17a5.38,5.38,0,0,0,3.49-1.34,4.74,4.74,0,0,1,.82-.64,1.09,1.09,0,0,1,.41,0,4.44,4.44,0,0,1,2.09,1.64c.95,1.17,6-.61,4.92-1.91C574.6,470.88,568.3,473,564.94,476.11Zm307.15-33.49a4,4,0,0,0-3.73.44c-2.29,1.42-4.5,3.1-5.41,5.72-.83,2.41,1,4.86,2.59,6.47,1.37,1.42,6.36-.56,4.86-2.12-1.19-1.25-2.48-2.7-2.27-4.55s2.2-2.91,3.55-3.75C872.44,444.36,873.2,443.21,872.09,442.62ZM894,436.29c1.88.63,6.18-2.1,3.15-3.11-3.72-1.23-7.33-2.08-11.19-1-.85.24-2.54,1-2.23,2.2s2.18,1,3,.79C889.23,434.51,891.72,435.53,894,436.29Zm-32.15-2.84c-3.59,0-7.56.53-10.31,3.07-.73.68-.72,1.38.41,1.52a5.16,5.16,0,0,0,3.71-1c1.2-1.12,2.46-1,4-1a4.89,4.89,0,0,0,3.49-1.35C864,433.72,862.53,433.45,861.88,433.45Zm35.66-18.18a6.55,6.55,0,0,0,3.66-.68c.37-.18,1.86-1.12.66-1.33-6.06-1.06-11.75.27-17.4,2.48-.21.08-2.37.95-1.57,1.46s2.55,0,3.37-.32C890.05,415.4,893.47,414.55,897.54,415.27ZM903,452.12c1.67,4.05,3,11.06-1.07,14.26-5.09,4-10.68,1-14.73-2.82-.64,0-2-.22-1.17-1.07a5.13,5.13,0,0,1,3.12-1.26A5.07,5.07,0,0,1,891,461c3.11-.67,5.44-3.18,7.37-5.68l.06-.06c-.19-.59-.4-1.18-.63-1.74C897.13,452,902.3,450.39,903,452.12Zm-3.79,6.94a20.13,20.13,0,0,1-6.15,3.43,10.41,10.41,0,0,0,4.71,2.95l.18,0a4.84,4.84,0,0,0,.83-1.51A12.19,12.19,0,0,0,899.22,459.06ZM1024.48,706c4.12,22.48,10.64,44.27,10.93,67.3,0,1.86-5.24,3-5.27.59-.27-21.93-6.39-42.79-10.47-64.16-15.58,14.43-43.53,17.92-63.33,19.13-27.14,1.67-58.11-1.18-80.1-18.76-6.94,20.92-7.75,43.08-12.83,64.45-.35,1.47-5.56,2.3-5.21.82,5.28-22.2,5.93-45.25,13.65-66.88a1.85,1.85,0,0,1,1-.9c-1.18,0-2.09-.51-1.57-1.68a179.83,179.83,0,0,0,12.76-41.3c2.21-12,5.84-30.32-3.85-40.09a.89.89,0,0,1,.09-1.37q-2.88-3.2-5.81-6.31a3.34,3.34,0,0,1-1.33.33c-17.15,0-27.56-9.51-40.06-19.61C827.32,608.32,819,618,811.41,627.25a15.54,15.54,0,0,1,1.24,4c1.29,8.3-5.45,14.06-11.11,19.08a2.37,2.37,0,0,1-.68.41c-4.82,12.43-13.41,22.81-15.23,36.52a65.76,65.76,0,0,1-10.49,27.54c-9.68,14.33-24.25,20.55-37.5,9.52q1.92,27.24,1.93,54.69c0,1.79-5.25,2.68-5.25,1.41,0-.81,0-1.63,0-2.44-.26-55.53-5.86-110.48-19.43-164.41-.39-1.55,4.87-2.93,5.25-1.41a639.89,639.89,0,0,1,17.11,106.76,2.5,2.5,0,0,1,2.15.39c8.8,9.35,19,10.73,27.44.06a66.11,66.11,0,0,0,11.45-22c2.1-7.06,3-14.24,5.3-21.18a48.71,48.71,0,0,1,2-5.13c3.12-6.78,7.55-13.09,10.2-20.05a2,2,0,0,1,.89-.92.81.81,0,0,1,0-.3,10.6,10.6,0,0,1-1.79.71,3.21,3.21,0,0,1-2,.08c-16.66-7.94-27.72-23-41.61-34.62-.92-.76-1.85-1.52-2.79-2.25-.06.27-.11.56-.16.84-1.77,8.9-4.45,18.52-8.8,26.27a2.33,2.33,0,0,1-.93.88c.34,1.63.67,3.25,1,4.87s-4.94,2.84-5.25,1.41C729.45,626.24,727,604,722.1,582.17c-2.54-11.24-5.25-21.32-14-29.62-7.33-7-16.07-12.29-23.32-19.23,2,4.83,3.72,9.68,5.29,14.35a171.89,171.89,0,0,1,6.17,22.56,2,2,0,0,1,0,.24c2.75,14.55,2.54,29.14-4.21,43.63a2.83,2.83,0,0,1-1.82,1c3.07,13,5.42,26,7.34,38.4a522.74,522.74,0,0,1,6.23,70.66c.28,16.06.42,32.69-2.8,48.5-.36,1.78-3.5,2.59-4.8,1.77a1.22,1.22,0,0,1-.53-1.38c3.1-15.21,3.11-31.23,2.84-46.68a514,514,0,0,0-6.19-71.47c-7.15-44.92-19.13-96.38-51.88-130.13-3.69,9.42-10.16,16.37-21.2,16.61-7.21.16-14.24-2.65-20.69-6.46,18.76,23.4,29.79,53.28,36.9,83.2.38.46.74.93,1.13,1.39a1.38,1.38,0,0,1-.3,2.12c2.72,11.94,4.84,23.84,6.61,35.3a522.74,522.74,0,0,1,6.23,70.67c.28,16,.41,32.68-2.81,48.5a2.45,2.45,0,0,1-1.41,1.59,64.07,64.07,0,0,0,12.69,2c1.91.06,2.53,1.26,2.22,2.35h0a8.3,8.3,0,0,1,2.39,4.5c3.12-.78,7.12-1.52,9.55.47,1.93,1.57.33,4.32-.8,5.85a30.26,30.26,0,0,1-5,5.11c-1.49,9.72-13.79,16-22.1,18.72-11.31,3.68-23.62,5.18-34.73.35a64.17,64.17,0,0,1-8.77,10.2c-.86.8-5.25,1.37-4.89.57a2.34,2.34,0,0,1-.38,0c-5.56-1.17-10.59-6.15-16.4-5.63-4.48.4-7.74,0-11.4-2.8-1.31-1-.44-2.2.89-2.85a1.73,1.73,0,0,1-.57-.47c-2.93-3.78-9.63-5.73-13.76-7.75a226.36,226.36,0,0,1-22.18-12.06c-18.17-11.6-34.52-27.51-41.47-48.43-4.78-14.39-4.94-28.77-3.42-43.73,2.2-21.78,5.35-43.55,6.07-65.44.58-18-1.89-37.7,4.65-54.87,6.94-18.22,20.75-34,33.19-48.78-5.77-5.33-9-12.37-4.93-20.16,9.54-18.29,35.86-8.76,49.73-20.18a15.14,15.14,0,0,1-10.62-1.9c-5.94-3.59-11.09-10.61-9.61-17.94a16.68,16.68,0,0,1,1.31-3.85c-.37-.5-.8-1.09-1.27-1.75a1.65,1.65,0,0,1-1.4-.42c-9.44-13-23.37-30.77-19.73-47.91,2.43-11.47,9.28-22.6,21.53-23.85-.64-14.81,20.8-20.42,37.19-23.33,21.53-7.24,49.67-14.9,64.46-12.75,19.54,2.84,8.74,13.31,4.33,16.92a1.63,1.63,0,0,1,.51,0c4,1.09,12.43,3.81,10.79,9.63a5.75,5.75,0,0,1-1,4.53c-4.41,6.81-7.47,9.8-16.69,11.82.72,17.86,8,33.88,13.77,50.64,3.81,11.15,9.56,25.3.93,35.69a45.91,45.91,0,0,1-9.17,8.17c8.38,6.45,14.65,15.5,19.57,25.29,1.12-.31,2.29-.34,2.65.17,8.92,12.53,23.8,18.46,33.26,30.36a50.37,50.37,0,0,1,8.89,18.1c.78,2.72,1.46,5.51,2.1,8.42.83,3.79,1.58,7.59,2.3,11.39,2.67,14.1,4.77,28.32,7.45,42.41a104.94,104.94,0,0,0,6.15-21.35,1,1,0,0,1-.75-.67c-1-4.61-.55-9.51,2.64-13.18,3-3.44,7.9-4.65,12.29-4.29a3.59,3.59,0,0,1,.64.1c4-3.13,8.53-3.52,13.1-2.34a1,1,0,0,1,0-.18c0-13-.69-33.56,13.83-39.44,1.06-.44,3.18-.83,3.72.6a43.52,43.52,0,0,1,2.36,12.84c3-4.38,5.25-9.82,8.42-13.9A26.29,26.29,0,0,1,810.57,544c1-.42,3.19-.85,3.72.58a22.63,22.63,0,0,1,1.14,12,17.73,17.73,0,0,1,2.61-2c2.68-1.61,7.61-2.87,9.85.1,2.49,3.3,2.29,7.31.85,11.37a16.08,16.08,0,0,1,3.47-1.58c1-3.22,4.14-4.46,7.25-4a3.93,3.93,0,0,1,2.62-3.59,9.45,9.45,0,0,1,3.86-.69c.47-10.25,2.78-22.28,8.31-30.88-19.51-1.61-37.12-10.56-37.87-32.23-.68-19.56,6.91-38.4,13.46-56.46,7.47-20.6,12.45-43.34,28.64-59.3,16.42-16.2,38.18-19.45,60.25-16.23,17.83-1,34.83,3.46,45.67,18.6s15.31,33.35,24.94,49c11.37,18.53,31.62,32.11,37.36,54,5.47,20.86-4.8,41-14.66,58.87a2.46,2.46,0,0,1-1.25,1c2.66,15.67.76,32.8,2.09,48,0,.36-.4.7-1,1,.94,0,1.42.26.42.88a40.18,40.18,0,0,1-4.71,2.41c.7.13,1.22.52,1.22,1.24,0,17.83.65,35.92-2.64,53.53a107.2,107.2,0,0,1-3.22,13.1c.57.1,1,.38,1.08.88,2.24,14.45,9.58,29,16.7,41.8C1022.19,704.8,1024.26,704.77,1024.48,706ZM569.68,382.33c3.11-1.29,7.38-3,12.39-4.79A51.27,51.27,0,0,0,569.68,382.33Zm48.48,398.48c.69-6.38,2-14.46-1.56-20.19-3.87-6.23-9.78-2.14-15.52-.72-.27.07-.55.12-.82.18l.16.12.09.06s0,0,.06.08l.06.08a.42.42,0,0,1,0,.49c-.32,22.69-7.54,43.23-28.22,54.67a3.26,3.26,0,0,1-1.1.83l.08,0c4.41,3.36,8.37,1.07,13.14,2.5s8.81,4.44,13.65,5.46a2.6,2.6,0,0,1,.51.15C609.48,812.9,616.48,796.3,618.16,780.81Zm4.78,1.33A86.77,86.77,0,0,1,611.29,814a1.41,1.41,0,0,1,.5.12c10.05,5,22.07,4.56,32.34.26,5.77-2.42,12.94-6.17,15.71-12.16a30.28,30.28,0,0,1-8.13,3c-3.2.62-4.1-2.42-.82-3.06,5.32-1,10.6-4.51,14.24-8.46.73-.78,2.77-2.76,2.2-4s-5.31.33-6.07.53a4.66,4.66,0,0,1-.49.06c-3.91,3.69-14.25,4.88-18,6.37-.94.38-2.67.8-3.49-.09s.71-1.91,1.39-2.18c3.77-1.51,7.93-1.8,11.81-3,1.39-.42,3.59-.93,4.32-2.36.87-1.71-.77-3.59-1.82-4.78a.92.92,0,0,1-.23-.52C643.74,782.73,634.06,778.24,622.94,782.14Zm19.24-86.31q-1.54-18.81-4.49-37.47c-2-12.48-4.35-25.46-7.42-38.43-5.14-6.3-9.64-13.13-14.48-19.66-6.29-8.49-13.64-15-21.43-22.08-7.55-6.9-12-16.59-20.05-23-7.55-6-16.41-8.66-25.7-10.82a42.68,42.68,0,0,1-14.39-6.57c-13.48,15.89-30.1,34.09-33.82,54.9-3.3,18.41-1.38,37.35-2.7,55.94-1.53,21.51-5.2,42.89-6.35,64.42-.71,13.17.82,26.58,6.25,38.72,9,20,25.8,34.63,44.62,45.26,6.68,3.78,13.59,7.06,20.46,10.48,3,1.51,6.83,3,9.23,5.58,17.57-11.17,23.27-30.69,23.52-50.93-19.06-13.12-25.11-39.6-51.63-39.69-3.55,0,.15-2.91,2.06-2.9a40.64,40.64,0,0,1,17.93,3.79c0-23.09,4.7-46.24,6.24-69.23,1.3-19.34,5.19-53.75-14.28-66.12-2.39-1.52,2.33-4,4.1-2.85,18.84,12,16.93,42.58,15.89,61.78-1.45,26.49-7.23,53.14-6.6,79.7a35.37,35.37,0,0,1,6.39,6.18c7.52,9.24,13.62,19,23.22,26.13a5.55,5.55,0,0,1,1.85-.68c4-.6,12.56-6.66,17-3.76,6.91,4.46,6.82,13.56,6.16,20.87-.08.79-.17,1.58-.27,2.38a31,31,0,0,1,15.54-1.32c.64.12,1.28.26,1.91.39h0a1.67,1.67,0,0,1,0-.31,148.72,148.72,0,0,0,2.57-21.35c.46-8.47.41-17,.26-25.33Q643.58,712.82,642.18,695.83ZM584,526.34c-1.1-1.09.18-2.28,1.76-2.74a1.73,1.73,0,0,1-1.26-1.68c-.17-8.79-1.92-17.65-3.68-26.33-5.38,5.22-11.65,7.62-19.14,8.91-9.93,1.7-27.73.81-31.73,12.82-2.33,7,.32,11.94,5.27,15.69a1.85,1.85,0,0,1,1.38,1c9.93,6.58,27,9.24,34.12,13A52.06,52.06,0,0,1,587,561.12c6.72,8.5,13.7,15.38,21.54,22.82,7.14,6.79,12.67,14.86,18.35,22.82C618.52,576.73,605.67,547.73,584,526.34Zm52.65-4.82a1.55,1.55,0,0,1-.28-.93,101,101,0,0,1,.51-12.18,37.54,37.54,0,0,1-15.84-.26c-3-.78,1.57-3.27,3.22-2.84,4,1.06,9.1.95,14.38-.09a4.58,4.58,0,0,1,1.77-.38A53.8,53.8,0,0,0,655,499a4.88,4.88,0,0,1,1.46-.89c6.61-4.22,11.64-9.86,12.59-16.33,1.89-12.91-5.92-27.76-10.26-39.58-4.48-12.19-8.29-24.35-8.71-37.34-1.53.23-3.16.46-5,.69-10.5,1.31-22.68.65-30.87-.11,1.61.83,2.61,1.9,1.77,3.21-1.62,2.53-4.72,3.61-7.45,4.51-10.13,3.34-22.18,2.45-33,1.57,8.15,15.37,14,35.05,8.59,52-.36,1.16-2,1.73-3.34,1.58-1.37.57-3.26.62-3.84-.48-5.39-10.27-16.17-1-16.52,7.48-.37,8.92,10.54,21.4,19.31,14.16.63-2,4.72-2.78,5.19-.55v0c0,.12,0,.25.08.37,2.1,10.57,4.53,21.43,4.74,32.23a1.79,1.79,0,0,1-.5,1.23,1.7,1.7,0,0,1,.56.26c6.7,5.32,14.18,10.83,22.47,13.35,12.8,3.9,20.25-2.25,24-14.41A1.47,1.47,0,0,1,636.63,521.52Zm6.83-.94C667.2,544,680.64,576.73,689,609.91c7.33-20.23,2.82-40.79-4.16-60.85-5.92-17-13.56-36.44-28-48.12a64.09,64.09,0,0,1-14.6,6.21,93.13,93.13,0,0,0-.61,12.83A2.47,2.47,0,0,1,643.46,520.58Zm350.26,76.29a39.24,39.24,0,0,0,11.49-3,30.57,30.57,0,0,0,2.89-1.51c-.28,0-.46-.12-.47-.26-1.88-21.47,3.8-49.82-9.46-68.58-12-17-32.95-23.51-52-29.92-1.24,9.65-6.55,19.93-10.83,28.16-4.47,8.57-10,19.59-19.31,23.79-20.12,9.08-13.83-38.84-15.74-48.17,0-.17-.07-.34-.11-.48-.19-.39-.4-.74-.6-1.11a39.39,39.39,0,0,1-3.66,3.65c-8.69,7.55-19.91,11.12-29,18.46a33.18,33.18,0,0,0-3.58,3.43,24.08,24.08,0,0,0-2.55,3.89l-.47-.09c-6.36,9.19-8.85,21.32-9.14,32.45a20.34,20.34,0,0,1,6.21,4.58c3.67,4,6.54,9.19,10.45,13.06.52.52,1.06,1,1.62,1.48l-.06-.15c-2.91-6.28-7.89-13-5.53-19.53,1.16-3.2,6.45-2.76,8.75-1.68.41.19.81.41,1.2.64a14.11,14.11,0,0,0,2.26-8.42c-.13-1.42,5.16-2.39,5.25-1.4.36,4.12-1.41,7.63-3.62,11a2.69,2.69,0,0,1-1.13.86c4.25,3.73,7.51,9.54,9.13,14.38,2.18,6.55,2.13,16.45,7.74,21.12a.39.39,0,0,1,.15.37c20.82,12.76,45.12,20.46,64.8,34.95-.19-11.22-.86-22.42-.94-33.64v0c-1.25-10.25-3.89-20.34-4.1-30.7,0-1.52,5.23-2.33,5.25-1.41.2,10.36,2.84,20.46,4.1,30.71.13,2.76,13.16,3.24,14.94,3.35A91.92,91.92,0,0,0,993.72,596.87Zm-87.3-76.51c.09,4.93.54,28.87,10.68,19.71,7.58-6.84,12.5-16.91,16.56-26.13,2.74-6.21,6.19-13.29,7.14-20.24a1.33,1.33,0,0,1-.52-.53c-3.76-7.12-4.25-14.9-4.32-22.76-1.19-.07-2.36-.18-3.48-.31-3.54-.42-.15-3.43,2-3.17l1.64.19c.88-1.67,5.12-2.19,5.13.12v.14c3.41-.1,6.76-.93,8.48-3.71,1.93-3.1,1.57-7,.34-10.29-1.11-3-3-6.4-5.83-8.11a9.08,9.08,0,0,0-2.38,1.05,15.36,15.36,0,0,0-.63,2.44c-.38,1.92-5.7,2.76-5.27.6.07-.35.16-.71.26-1.06-5.09-1.76-17-6.67-22.19-15.28-5.48-9.17-4.71-26.42-4.27-32.18-18.76,6.49-41.31,2-58.49,12.52a3,3,0,0,1-1.16.39c-.1,1.58-.15,3.16-.19,4.74h0c5-3.52,10.91-4,16-.45,2.19,1.54-2.63,3.74-4.15,2.67-3-2.11-5.45-2.63-8.56-.45a4.24,4.24,0,0,1-3.36.36,139.75,139.75,0,0,0,1.77,23c1.6,9.93,3.57,22.14,12.61,28.24,7.72,5.21,16.47,4.94,24.87,8.16,7.59,2.9,12.27,7.78,15.94,14.85.11.21.23.4.33.61s.07.34.11.5C907.51,503.7,906.27,512.46,906.42,520.36Zm-55.25-126c1.93-3.22,4.06-6.62,6.31-9.9-1,1.36-2.06,2.78-3,4.29C853.29,390.56,852.2,392.43,851.17,394.33Zm-15.41,184c-.35.6-.68,1.13-.93,1.55-.14.24-.3.48-.44.71a8.51,8.51,0,0,1,3.35.78l.15.08C837.19,580.41,836.47,579.38,835.76,578.33ZM806.93,631.1c-2.81-6.35-8.2-11.28-13-16.11-6.4-6.42-25-27.18-34.34-15.85-1.34,1.62-6.38,1.27-4.31-1.24h0c-6.82-.5-8.58,6.4-7.74,12a2.77,2.77,0,0,1,.41.12,3.55,3.55,0,0,1,2.73-.14c16.6,11.89,28.25,29.86,47,38.84C802.43,644.5,810.08,638.24,806.93,631.1Zm22.75-37.47c.24-.49,3.15-8.84,2.16-8.21a3.14,3.14,0,0,1-.75.32c-2.47,3.69-5.09,7.28-7.76,10.84-1.08,1.45-6.4,1.78-4.91-.21,2.89-3.85,6.09-7.86,8.9-12.07a1.53,1.53,0,0,1,.75-1.13,48.08,48.08,0,0,0,5-9.67c.51-1.42,1.52-3.73.79-5.23s-1.83-.09-3.44,1.23a74.46,74.46,0,0,0-6.14,5.13c-.9,1.36-1.82,2.66-2.72,3.87a1.71,1.71,0,0,1-.29.39c-1.05,1.41-2.05,2.71-2.88,3.82s-5.56,1.43-5.18.92c1-1.37,2.07-2.79,3.12-4.25a.76.76,0,0,1,0-.41,22.65,22.65,0,0,1,3.89-5.61,35.2,35.2,0,0,0,4-9.2c.54-2.2-.34-11.62-4.16-7.88a32.81,32.81,0,0,0-6.8,10.05,2.54,2.54,0,0,1-1.63,1c-1.44,2.9-3.07,5.8-4.62,8.83-.91,1.76-6.22,2.11-5-.34,4.75-9.23,10.46-17.29,7.69-27.68-7.1,4.49-9.54,13-14.28,19.64.44.78-.05,2-1.79,2.58a2.65,2.65,0,0,0-.87.64l-.07.07h0c-.15.15-.31.29-.44.41a3.06,3.06,0,0,1-.95.49,62.34,62.34,0,0,0,1.48,12.54c.54,2.15-4.72,3.54-5.25,1.41-2.34-9.33-.71-19.15-3.33-28.34-8.79,6.89-7.78,24.93-7.78,34.53,0,.84-.92,1.5-2,1.81,7.32,3,14.43,9.26,19.28,13.93,4.38,4.21,11.12,9.44,15.3,15.31,4.41-5.38,8.78-10.8,12.72-16.52A100.41,100.41,0,0,0,829.68,593.63Zm95.89,71.25c14,13.13,44.85,34.33,62.52,15.56,19.31-20.52,15.48-57.73,15.44-83.66a.91.91,0,0,1,.06-.32,69.76,69.76,0,0,1-23.07,3.09c-1.61,0-10.55,0-16.82-1.13-.3,0-.6-.11-.89-.18v.19c.21,11.18.88,22.36.94,33.56a1.14,1.14,0,0,1-.32.74c2.16,1.81,4.27,3.68,6.28,5.71,1.37,1.39-3.61,3.34-4.88,2a104.45,104.45,0,0,0-21.48-16.35c-6.43-3.82-13.17-7.2-20-10.46-12.23-5.85-24.69-11.37-36-18.56-.6-.38-.62-.82-.34-1.24-5.91-6.82-4.69-19.11-9.66-26.73a31.79,31.79,0,0,0-7.07-8.21,14.86,14.86,0,0,0-1.36-1l-.21-.12v.09a14.35,14.35,0,0,0,.33,4.08c1.57,6.16,5.69,11.2,7.16,17.4a.88.88,0,0,1-.32.83c1.54,1.3-1.69,3.92-3.8,3.26-6.1-1.94-10.1-6.73-13.76-11.73-2.14-2.92-4.57-6.69-7.72-9.11-1.34,1.29-4.72,1.41-4.76-.75,0-.48,0-1,0-1.48-.31-.06-.63-.09-1-.12a2.26,2.26,0,0,0,.1.85,14.67,14.67,0,0,0,.87,2.57,43.72,43.72,0,0,0,3.6,6.31,96.69,96.69,0,0,0,7.07,9.41c1.82,2.1-3.15,4.26-4.79,2.37-2-2.27-9.31-10.76-11.62-17.33a3.22,3.22,0,0,1-1.85-.05c-.33-.12-.58-.21-.81-.27a2.11,2.11,0,0,0-.12.38,1.34,1.34,0,0,1-.13.27,5.3,5.3,0,0,1,1.4,1.18c1.47,1.79.87,4.66-.29,7.42a1,1,0,0,1,.53.36c2.63,3.71,5,7.56,7.68,11.27.5.7-4.28,2.77-5.25,1.4-.82-1.15-1.61-2.33-2.39-3.5,0,0,0,0,0,.05a59.78,59.78,0,0,1-3.68,10.29,1.54,1.54,0,0,1,.51.26c11.86,9.47,21.46,19.22,37.08,20.07,1-1.05,3.81-1.76,4.76-.77C893.9,629.86,908.31,648.75,925.57,664.88Zm86.72,47.18a36.45,36.45,0,0,0,4.07-3.55c-6.12-10.93-12.52-23.13-15.9-35.54-.21-.79-.42-1.59-.61-2.38a44.51,44.51,0,0,1-2.82,5.06A30.65,30.65,0,0,1,985,686.83c-13.85,6.89-29.9,3.15-43.3-4.16q-1.15-.63-2.28-1.29a85.67,85.67,0,0,1-10.15-7c-14.15-11.35-26.08-25.11-38-38.83,1.45,8.73-.11,18.67-1.5,26.23a192.5,192.5,0,0,1-13.51,44.35,1.49,1.49,0,0,1-.33.44c1.16-.42,2.51-.61,3.06-.13,20.13,17.49,49.37,21.5,75.16,20.24,11-.54,25-1.54,37.66-5C999.41,719.51,1006.54,716.45,1012.29,712.06ZM1123,452.45c-8.12-3.19-6.62-14.8-5.69-21.68.36-2.62-5-1.89-5.31.43-1.19,8.79-2,20.83,8,24.73C1122.14,456.78,1126.11,453.67,1123,452.45Zm27-.33c2.3,6.11,1.52,13.5-5.11,16.35-6.87,3-12.38-2.3-15.16-8.12-.67-1.4,2.68-2.75,4.41-2.12,3.48-2.4,7.93-3,11.11-5.92C1146.24,451.43,1149.38,450.35,1150.05,452.12Zm-4.45,4.09a20.71,20.71,0,0,1-2.26,1.13c-2,.82-4.44,1.35-6.07,2.82a4,4,0,0,1-1.16.7c1.8,2.89,5.17,7.08,7.66,4.65S1146.36,459.47,1145.6,456.21Zm-47-35.18c2.18,2.31,2.56,4.88,2.56,7.93,0,1.3,5.25.4,5.25-1.41,0-3.29-.57-6-2.9-8.45C1102.37,417.93,1097.42,419.82,1098.56,421Zm35.49-5.93c2.17,2.31,2.55,4.88,2.56,7.93,0,1.3,5.25.4,5.25-1.41,0-3.29-.57-6-2.91-8.45C1137.85,412,1132.9,413.89,1134.05,415.1Zm-32-8.37c-.79-.87-2.57-.54-3.49-.11-2.62,1.22-5.55,1.5-8.19,2.73-.68.31-2.21,1.29-1.38,2.21s2.58.55,3.5.12c2.62-1.22,5.55-1.5,8.19-2.73C1101.39,408.63,1102.92,407.65,1102.08,406.73Zm32.75-1.69c.76-1-.64-1.36-1.37-1.36h-6.82a4.65,4.65,0,0,0-3.49,1.39c-.75,1,.65,1.36,1.38,1.36h6.82A4.61,4.61,0,0,0,1134.83,405ZM1295,700.8q-7.14,5.21-14.42,10.25l-.64.45a3.89,3.89,0,0,1,.68-.13c1.3-.15,2.56.28,2.53,1.56-.53,17.41,6.72,33.7,9.19,50.72.21,1.48-1.79,2.54-3.38,2.57-1,0-1.75-.33-1.87-1.17-2.52-17.35-9.78-33.89-9.24-51.65a1.42,1.42,0,0,1,.15-.56c-10.69,7.43-21.46,14.75-32,22.34-9.94,7.14-21,14.35-30.73,22.63a102.93,102.93,0,0,0-14,14.09c.19.26.09.62-.52,1.1-13.77,10.78-36.19,24.8-54,15.86-1.21-.61-.33-1.55,1-2.16-5-.81-9.34-3.16-11.76-7.77-5.72-.65-11.12-2.46-15.48-6.34-.91-.81.26-1.82,1.72-2.31a32.32,32.32,0,0,1-6.5-2.6.89.89,0,0,1-.37-1.36h0c5.72-9.41,19.43-10.87,29.63-14.11-10.11-.37-28-.35-27.38-6.37.33-3.4,5.39-6.26,10.54-8.26a63.63,63.63,0,0,1,10-3c12.58-2.41,25.17-1.07,37.85-.79a57.88,57.88,0,0,0,15.95-10.88c-1,.1-1.92-.14-2-.88-4.54-35.81-5.28-71.35-6.31-107.35-1-32.8-4.23-66,1.15-98.55-2,.25-2.1-.86-1.28-1.84-.47,0-.76-.12-.68-.28a145.59,145.59,0,0,0,6.88-16.76c-12,7.56-30.16,8.79-42.55,5.94-2.57,5.65-2.61,12.47-5.21,18.11a1.37,1.37,0,0,1-.21.3c.07.15.16.28.24.43.15.31-.32.73-1,1.09-5.14,36.65-2.69,74.08-5.8,110.93-2.69,32-8.78,67.72,1.72,98.86.55,1.62-3.18,2.94-4.7,2.05a1.16,1.16,0,0,1-.55-.64c-10.32-30.61-4.59-65.81-1.94-97.23,3.22-38.22.66-77.13,6.27-115.11-4.25-7.4-10.77-10-19.13-5.27-.41.23-5.33,1.56-4.62.34a83.65,83.65,0,0,1,10.16-14.5c-3.25,1.66-6.52,3.34-9.76,5.16-11.75,6.61-16.12,18.42-19.27,30.91-6.8,27.05-15.41,54.47-19.2,82.31,14.64.19,29.85,8.64,39,20.47-.32-33-1.18-66.14,4.19-98.82.26-1.6,5.52-2.56,5.23-.75-5.89,35.83-4.24,72.22-4.1,108.38,4.86,10.78,4.6,23-4.48,34.12a2.87,2.87,0,0,1-1.49.88,69,69,0,0,1-21.64,28.44c.77.13,1.27.53,1,1.28-5.19,15.91-4.22,33.26-3.08,49.72a1.45,1.45,0,0,1-.17.79c-.89,1.74-5,2.43-5.09.62-1.12-16.24-2.15-33.33,2.61-49.11-7.65,4.86-19.13,8.6-27.85,4.41-13.93-6.72-19.12-24.53-21.52-38.63-3.16-18.52-3-37.42-6.46-55.89a1,1,0,0,1,.48-1c-5.58-6.92-12.82-13.17-14.71-21.86-2.43-11.2-3.06-27.86,2.44-38.29,2.78-5.27,11.06-12.79,19-14.75.24-5,1.87-9.41,6.44-12,3.1-1.73,7.63-1.79,10.58.29,7.53,5.32,3.69,18.86,3.58,26.75a1.13,1.13,0,0,1-.23.63.59.59,0,0,1,.23.4c1.63,21.81-6.13,43.68,7.11,63.24.81,1.19,1.62,2.36,2.44,3.51.25-3.13.58-6.27,1-9.4a1.93,1.93,0,0,1,.27-2.34c3.74-28.88,12.31-57.78,20-85.41,3.07-11,7.46-21.92,17.66-28.05,10.93-6.57,22.58-11,32.86-18.77a5,5,0,0,1,1.76-.58,22,22,0,0,0-2.6-4.73,42.66,42.66,0,0,1-35.87-15.14c-16.07-19.05-21-46.72-19.21-71,0,0,0,0,0-.05-2.35-14.58,4-26.55,14.59-35.41,11.47-12.91,31.36-18.9,52.06-17.41a58.09,58.09,0,0,1,17.47,2.67c37,12.34,52.57,69.27,29.73,100a1.66,1.66,0,0,1-.18.19c-2.38,6.58-3.54,13.52-.49,20.13,1.26,2.75,2.84,5.32,4.18,8,1.16-.79,3.51-1.47,4.44-.81a97.68,97.68,0,0,0,15.26,8.56c1.81-.89,5.53-.87,4.2.73-.24.28-.45.59-.68.88,17.86,8,37.62,14.5,48.61,30.18,14.25,20.34,15.36,47.3,19.53,71,2.85,16.2,5.3,32.52,9,48.56,2.06,8.84,5.1,17.39,7.36,26.17.35.37.72.71,1.07,1.09.63.69.35,1.4-.32,1.94C1312.74,680.19,1312.46,696.2,1295,700.8Zm-29.29-185.17a42.45,42.45,0,0,0-4.66-4.63c-11.68-9.78-25.86-15.24-39.57-21.56-6.64,11.09-7.36,24.92-15.3,35.49-.92,1.22-4.18,2.43-5.08.59-2.44-4.93-6.2-8.6-11.24-9.44-5.39,33.24-1.62,66.86-1,100.3.64,34.73,1.83,69,6.16,103.54,3-2.94,5.77-6,8.48-9,6.15-6.81,12.38-13.22,16.55-21.47,5.62-11.16,11.64-26.11,25-28.85-1-.26-1-1-.54-1.66-5.93-15.8-14-31.22-14.71-48.42-.75-19.47,2.78-39.06-1-58.35-.28-1.43,5-2.68,5.25-1.41,3.83,19.44-.42,38.82,1,58.35.85,11.44,4.38,21.89,8.41,32.27,21.06-4.72,41.13.37,57.35,13.4-.65-2-1.26-3.92-1.76-5.58-7.27-24-10.92-49.92-14.64-74.73-1.79-12-3.36-25.89-7.54-38.41A59,59,0,0,0,1265.71,515.63Zm-68.81-24.84c-3,7.28-5.26,14.92-8.87,22a17.7,17.7,0,0,1,16,7.59c5.72-10.38,6.87-22.81,13.55-32.74a125.68,125.68,0,0,1-14.85-8.23l-.5.78c.08.21.16.42.23.63.14.42-.5.9-1.38,1.27l-.06.1A22.63,22.63,0,0,1,1196.9,490.79Zm-154.8,59.79a10.3,10.3,0,0,1,7.77,4.62,21.33,21.33,0,0,1,3.06,6.81,94.8,94.8,0,0,0,.35-12c-.18-2.7-.21-6.13-2.66-7.86-5.82-4.11-7.87,3.17-8,7.59A1.36,1.36,0,0,1,1042.1,550.58Zm65.8,133.47c-5-16.44-16.19-30.95-31.76-38.11,5.28,7.63,9.77,15.46,11.83,25.61.34,1.68-4.94,3-5.25,1.41-3.63-17.85-15.37-28.42-24.35-43.42-9.2-15.35-6.32-31.81-5.61-48.49a57.56,57.56,0,0,1-2.38,8.08c-2.39,6.29-9.54,15.81-15.91,7.49-1.68-2.19,3.31-4.28,4.8-2.34,4,5.17,7.74-11.16,8.2-13.88,1.16-6.91,2.52-17.91-2.93-23.5-3.52-3.61-8.6-1.7-12.38.51-10.23,6-12,17.09-12.08,28.06-.1,9.54-.34,19.37,6.2,27.06,4.63,5.44,9.42,10.28,13,16.56.94,1.64-1,3.08-2.78,3.2,3.34,25,1,53,14.09,75.06C1068.63,737.89,1099.75,705.81,1107.9,684.05Zm-34.41-59c-.57,4.87-1,9.77-1.24,14.67,18.92,5.59,33,21,39.68,39.23a27.48,27.48,0,0,0,2.58-23.83c-.81,0-1.45-.17-1.45-.65,0-1,0-2,0-3C1106.31,637,1089.47,625.41,1073.49,625.08Zm63.81-109.16a4.6,4.6,0,0,1,1.55-.71c1.15-4.91,1.92-9.94,4.7-14.18-.73-3-1.09-6.07-1.75-9.1,0-.21-.13-.39-.18-.58-1.06.76-2.13,1.49-3.21,2.2,0,.42-.66,1-2,1.43-.18,0-.36.14-.55.2-1.62,1-3.27,1.91-4.92,2.82-5,3.95-9.12,10.44-12.21,15.7C1125.5,511.25,1132.2,511.38,1137.3,515.92Zm55.24-26a67.3,67.3,0,0,1,3.07-6.27c.14-.47.27-.94.37-1.44a1.73,1.73,0,0,1,.87-1c-1.8-4.75-5.13-8.83-6.51-13.73a23.74,23.74,0,0,1-.74-8.92c-.73,1.05-1.21,1.72-1.21,1.72l-4.5-23.45-1.32.07c-3.48.14.8-2.15,2.25-2.21l1.55-.09a15,15,0,0,0,7.5-12.25,9.61,9.61,0,0,0-1-5.95h0a23.52,23.52,0,0,0-1.73-1.73c-3-1.87-7.69-.5-9.55,1.68-3,3.51-3.41,9.89-5.46,14.68s-3.58,2.3-3.58,2.3l-3.24-10.87s-1.72-6.35-5.27-10.33c-2.74-.61-5.69-.89-8-1.81-6.17-2.45-8.65-7.43-9.48-13.27l-.09-.15s-17.05-6.63-30.74-5.47c-1.53.39-2.94.77-4.16,1.07-2.31.57-4.63,1.19-7,1.81a73.7,73.7,0,0,0-16.12,8.92c-.61,19.27,3,40.65,13.6,56.74,8.73,13.28,22.34,21.41,36.61,20.8,1.12-.41,2.39-.6,2.93-.26a38.74,38.74,0,0,0,17.08-6.72c2.17-1.49,6.45.49,3.51,2.51a47.88,47.88,0,0,1-18,7.55,17.51,17.51,0,0,1,2.75,6c.7,3.2,1.1,6.42,1.85,9.6a.39.39,0,0,1,.14.57c0,.06,0,.12,0,.19C1162.05,503.94,1183.72,501.84,1192.54,489.88Zm99.19,209.67,0,0a3.35,3.35,0,0,1,1.41-.73l.31-.1c15.77-3.68,13.92-20.4,10-34.73-15.69-16.34-36.52-24.05-58.82-19.29,1.65,4.18,3.34,8.37,4.93,12.63,22.83,1.65,36.36,19.25,46.57,38.37.85,1.59-1.37,3-3.12,3a1.76,1.76,0,0,1-1.71-.76c-7.86-14.72-17.69-29.18-32.94-34.78a38.2,38.2,0,0,0-8.33-2.08,1.44,1.44,0,0,1-.06,1.11,3,3,0,0,1-2.58,1.66c-16.33,1-20.48,27-29.71,37.32-11.36,12.77-23.12,28.37-39.23,35.42a3.84,3.84,0,0,1-2.37,1c-10.77-.12-21.83-1.75-32.56-.27a47.89,47.89,0,0,0-17.38,5.81,11.84,11.84,0,0,0-2.69,1.8c-.55.62-.41,1.21,1.42,1.6.93.2,1.87.36,2.81.5,8.7,1.24,17.82,0,26.3,2.4,3,.87-.62,3.75-2.8,3.43a4.42,4.42,0,0,1-.76.4c-8.49,3.51-21.08,4-27.93,10.38-3.44,3.18,1,3.62,4.16,4.22a42.2,42.2,0,0,0,11.92.77,50.89,50.89,0,0,0,16.93-4.29c2.37-1.1,5.4.69,2.09,2.23-9.24,4.29-20.88,6.56-31.39,4.75,9.15,7.08,23.17,4.61,33.72,2.75,3.6-.64,2,2.78-.62,3.25a111.21,111.21,0,0,1-17.13,2c5.35,6.77,17.15,5.84,24,1.84,1.61-.93,6.28-.39,3.22,1.39a36.88,36.88,0,0,1-16.91,4.59c14.48,5.7,32.29-5.92,43.49-14.65a1.3,1.3,0,0,1,.1-.15c12-15.17,30.08-26.54,45.64-37.66C1258.36,722.76,1275.34,711.56,1291.73,699.55ZM655.85,273.8c-6.72-26.1,2.08-60.21,31.6-66.61a3.53,3.53,0,0,1,1.75,0c18.22-7.68,40.56-9.25,60-9.52,23.91-.32,52.71,2,71.8,18.18,17.89,15.19,30.21,51.92,15.33,72.76-14.08,19.73-42.09,23.52-64.69,25.63-13.89,11.37-31.82,14.65-48.92,18.69-.76.35-1.52.69-2.31,1-1.65.66-4.28.42-2.9-.52-.79-.59-.36-1.79,1.68-2.29,1.69-.41,3.39-.8,5.11-1.19,7.11-4.53,12.78-11.31,19.21-16.75-18.65-2.78-38-.59-56.15-6.25A47.63,47.63,0,0,1,655.85,273.8Zm7.7,5.58c15.64,34.08,53.84,26.24,84.21,31.08.81.13,1.06.43,1,.78.77,0,1.23.11.82.43-6.85,5.49-12.65,12-19.64,17,13.28-3,26.67-6.41,37.38-15-.1-.86,1.14-2.09,2.75-2.24,21.59-1.95,56.47-5.1,64.88-29.64,7.7-22.48-3.52-55-23.87-67.48-19.88-12.22-44.82-14.27-67.63-13.38-17.08.67-36.57,2-52.5,8.77a3.66,3.66,0,0,1-2.59.12l-.16.05C659.33,216.09,652.84,256,663.55,279.38ZM966.84,309.1c-5.58-9.9-5.85-22.46-4.19-33.43,2-12.9,4.91-27.85,13.58-38.15,13.1-15.56,33.61-21,53.32-21,15.59,0,34.49,1.59,48.42,9.46a2.63,2.63,0,0,1,1.24,0c25.73,7.59,27.82,47,22.24,68.33-3.49,13.35-11.51,26.83-25.1,31.78-12.61,4.6-25.95,3.32-39,5.5,5,5.8,9.17,12.68,15.24,17.34,1.16.36,2.31.73,3.46,1.11.77.25.61.71,0,1.18l.34.19c.54.29-3.63,2.46-5,1.76a23.8,23.8,0,0,1-2.7-1.66c-12.89-4.11-25.8-7.84-35.07-18.38C995.89,330.74,976.29,325.9,966.84,309.1Zm5.64-.72c9.67,15.48,28.23,19.75,45.19,21.82,1.41.17,1.7.74,1.42,1.35,6.43,7.05,14.55,10.89,23.16,13.92-4-4.45-7.31-9.58-11.3-13.86-.28-.3.24-.76,1-1.16a2.8,2.8,0,0,1,1.85-1c11.61-2.45,23.85-1.07,35.31-4,15.39-4,24.49-17.43,27.5-32.46,3.89-19.37,3.3-57.11-20.65-64.17l-.09,0a2.86,2.86,0,0,1-1.91-.09c-11.76-6.71-27.82-8.63-41.08-9-19.44-.53-42.51,3.31-54,21C968,257.68,960.93,289.91,972.48,308.38Z" transform="translate(-137.48 -88.26)"/></svg>