<?xml version="1.0" standalone="no"?>
<svg version="1.1" id="Layer_1" xmlns="http://www.w3.org/2000/svg" xmlns:xlink="http://www.w3.org/1999/xlink" x="0px" y="0px" width="595.28px" height="595.28px" viewBox="0 0 595.28 595.28" enable-background="new 0 0 595.28 595.28" xml:space="preserve">
<path id="color_x5F_2" fill="#FBC02D" d="M347.025,192.214c-0.047,0.03-0.094,0.063-0.141,0.094l0.315-3.102
	C347.141,190.208,347.085,191.211,347.025,192.214z M369.34,189.181c2.462,1.083,5.726,3.067,8.433,1.674
	c4.831-2.488,7.922-8.336,10.455-13.308c-0.355,0.171-0.736,0.329-1.174,0.448c-0.445,0.121-0.871,0.195-1.293,0.23
	c-4.843,0.926-9.427-1.196-13.518-5.544c-5.647-6.001-12.191-16.971-20.764-11.468c-0.423,9.754-0.922,19.504-1.499,29.251
	C356.076,187.224,362.458,186.155,369.34,189.181z M209.354,295.206c3.852,3.795,10.451,4.554,15.595,5.168
	c6.032,0.72,12.117,0.467,18.134-0.32c3.13-0.409,6.274-0.863,9.338-1.64c1.486-0.376,4.63-0.764,5.61-2.172
	c0-0.011-0.004-0.021-0.004-0.031c0.001-16.099,0.336-32.129,7.224-46.983c-2.2-0.309-4.429-0.5-6.696-0.537
	c-1.421-0.023,1.286-1.176,1.884-1.166c16.3,0.272,30.584,7.964,46.234,11.332c5.469,1.176,11.794,2.22,17.286,0.639
	c5.646-1.624,7.31-5.771,7.067-11.152c-0.208-4.586-1.485-12.199-7.781-11.573c-7.08,0.704-14.153,1.337-21.259,0.635
	c-12.678-1.251-22.386-10.659-34.532-13.542c-0.149,0.084-0.321,0.156-0.532,0.206c-5,1.166-9.006-1.908-13.946-2.537
	c-1.845-0.234-3.668-0.664-5.499-1.025c0.574,0.78,1.025,1.745,1.469,2.88c0.074,0.189,0.016,0.349-0.119,0.482
	c7.084,1.952,5.366,14.121-1.85,17.422c0.026,0.105,0.029,0.225-0.013,0.367c-2.35,7.968-1.863,16.598-3.878,24.674
	c-1.511,6.06-4.075,13.133-10.994,14.416c-1.706,0.316-3.099,0.216-4.246-0.193c-5.129-0.076-10.995-0.908-16.376-2.485
	C210.459,282.737,205.79,291.694,209.354,295.206z M279.347,252.568c-2.603-0.807-5.222-1.55-7.872-2.166L279.347,252.568z
	 M227.117,210.79c-4.283,6.171,6.836,6.968,9.493,7.02c3.423,0.067,6.755-0.269,10.146,0.375c3.557,0.675,7.144,1.176,10.69,1.883
	c1.765,0.352,3.369,1.246,5.049,1.791c0.514,0.002,1.023,0.016,1.53,0.041c-4.747-2.757-8.977-6.251-13.638-9.167
	c-2.965-1.854-6.114-3.729-9.565-4.505c-2.176-0.488-5.195-0.855-7.947-0.467c-1.174,0.265-2.249,0.574-3.208,0.924
	C228.649,209.177,227.766,209.855,227.117,210.79z"></path>
<path id="color_x5F_1" d="M270.195,191.302c0.021,0.781,0.255,1.514,0.5,2.25c0.284,0.854-2.594,1.688-2.897,0.775
	c-0.245-0.735-0.479-1.468-0.5-2.25C267.27,191.051,270.174,190.515,270.195,191.302z M262.388,200.706
	c1.057,1.018,2.42,1.404,3.862,1.104c0.503-0.105,1.458-0.288,1.682-0.852c0.213-0.537-0.979-0.433-1.188-0.389
	c-0.041,0.008-0.059,0.015-0.083,0.021c-0.022-0.004-0.035-0.007-0.068-0.01c-0.167-0.016-0.364-0.103-0.513-0.176
	c-0.365-0.182-0.682-0.452-0.974-0.732C264.502,199.092,261.825,200.164,262.388,200.706z M267.627,185.386
	c-1.687,0.038-3.44,0.881-4.265,2.392c-0.351,0.644,0.307,1.142,0.881,1.209c0.716,0.085,1.533-0.234,1.888-0.885
	c0.304-0.558,0.715-0.597,1.235-0.608c0.632-0.015,1.512-0.469,1.598-1.166C269.056,185.578,268.189,185.373,267.627,185.386z
	 M392.945,520.386c0.457,0.891-2.365,1.815-2.897,0.775c-3.532-6.89-8.724-12.633-12.341-19.391
	c-2.857-5.339-3.972-11.002-5.482-16.804c-1.846-7.091-4.604-13.157-8.818-19.181c-3.396-4.853-7.165-9.687-9.441-15.206
	c-5.475-13.277-3.352-24.978,3.509-37.194c2.58-4.594,5.745-9.576,6.436-14.903c0.884-6.827-2.973-10.879-8.894-13.651
	c-1.247-0.585,1.373-1.859,2.283-1.453c-1.465-8.354-14.056-8.121-23.445-7.116c-0.081,0.782-0.155,1.565-0.237,2.349
	c-0.111,1.064-3.039,1.587-2.907,0.326c0.081-0.777,0.155-1.557,0.235-2.334c-1.052,0.133-2.029,0.264-2.909,0.379
	c0.004,0.547-0.032,1.109-0.099,1.682c-0.115,0.985-1.818,1.454-2.579,0.992c-7.387,0.467-14.773,0.934-22.16,1.399
	c-0.461,0.029-1.008,0.105-1.583,0.167c-11.977,3.325-23.395,5.451-33,14.137c-7.98,7.216-15.777,13.646-25.39,18.646
	c-11.448,5.953-23.25,10.346-35.434,13.707c-0.07,0.168-0.13,0.33-0.214,0.502c-0.377,0.771-3.128,1.015-2.866,0.479
	c0.03-0.061,0.047-0.117,0.075-0.177c-6.224,1.625-12.548,2.995-18.975,4.177c-0.265,0.245-0.651,0.42-1.125,0.421
	c-11.31,0.013-23.334-0.18-34.123,3.715c-12.044,4.349-19.163,13.082-26.613,22.98c-7.234,9.611-16.522,14.815-26.172,21.578
	c-11.888,8.33-20.134,19.688-28.237,31.524c-0.669,0.978-3.628,0.999-2.756-0.275c7.918-11.567,16.068-23.346,27.711-31.504
	c5.335-3.739,11.141-6.786,16.247-10.862c5.538-4.421,9.367-9.577,13.551-15.218c6.651-8.967,15.027-16.505,25.768-20.098
	c5.809-1.943,11.817-2.9,17.886-3.377c-1.012-2.313-0.102-5.912,0.295-7.996c0.805-4.223,1.981-8.406,2.456-12.685
	c0.009-0.077,0.028-0.151,0.057-0.223c2.705-16.018,5.666-32.667,13.757-46.935c8.92-15.729,16.779-31.964,20.296-49.766
	c-0.291-0.043-0.579-0.152-0.855-0.359c-0.72-0.539-1.202-1.312-1.596-2.142c-1.735,2.729-4.143,4.694-7.763,3.7
	c-1.348,0.985-3.09,1.551-4.555,0.968c-1.557,1.108-3.396,0.968-4.543-1.106c-0.002-0.004-0.005-0.008-0.007-0.012
	c-0.036-0.066-0.075-0.124-0.11-0.193c-0.09-0.18-0.081-0.353-0.011-0.512c0.01-2.841,0.746-5.375,1.909-7.722
	c-0.107-0.021-0.174-0.053-0.171-0.101c0.395-6.378-2.336-9.933-8.403-11.622c-4.65-1.295-9.394-2.276-12.812-5.96
	c-4.924-5.308-1.988-13.41-2.132-19.788c-0.099-4.404-1.02-8.003-4.117-11.25c-2.234-2.343-4.749-4.514-6.712-7.101
	c-4.078-5.375-5.366-11.584-6.477-18.089c-0.827-4.843-1.904-11.332-7.792-12.281c-18.38-2.964-26.603,15.805-28.587,30.661
	c-0.089,0.668-2.318,1.23-2.818,0.866c-8.187-5.964-19.987-12.078-29.314-4.842c-7.477,5.8-11.653,15.135-14.53,23.908
	c-6.816,20.782-8.77,43.362-8.831,65.149c39.704,0,79.407,0,119.111,0c1.958,0-0.081,1.604-1.138,1.604
	c-43.498,0-86.996,0-130.493,0c-1.958,0,0.081-1.604,1.138-1.604c2.83,0,5.66,0,8.49,0c0.096-23.957,1.944-50.49,11.92-72.526
	c3.851-8.506,9.389-16.755,18.631-19.837c8.97-2.991,17.83,0.535,25.329,5.511c2.115-12.23,8.037-25.904,21.143-29.049
	c4.75-1.14,12.989-2.904,16.837,1.346c3.943,4.354,3.652,11.066,4.94,16.482c0.891,3.749,2.137,7.702,4.499,10.815
	c2.711,3.574,6.471,6.311,9.048,9.963c5.642,7.998-0.825,17.438,2.603,25.671c2.808,6.743,9.241,7.593,15.44,9.58
	c4.717,1.513,7.22,4.07,7.818,8.265c1.351-1.84,2.873-3.599,4.388-5.343c0.135-0.155,0.322-0.271,0.532-0.357
	c-0.111-0.099-0.23-0.192-0.335-0.295c-7.143-6.94,2.06-16.061,4.563-23.085c0.107-0.301,0.462-0.545,0.89-0.709
	c-7.716-7.159,3.225-19.781,5.031-27.758c-0.021,0-0.043-0.002-0.065-0.002c-0.321,0.001-0.928-0.031-0.847-0.496
	c1.397-8.02,1.874-18.416,8.421-24.25c3.911-3.485,7.736-3.322,12.147-3.114c-1.816-1.315-2.543-3.202-0.669-5.903
	c4.215-6.074,13.587-6.646,20.033-4.295c4.873,1.777,9.104,4.63,13.297,7.561c-0.069-0.206-0.012-0.466,0.255-0.781
	c2.788-3.293,4.868-6.127,9.483-6.467c2.512-0.185,7.333,1.223,7.725-2.529c0.182-1.739,0.05-3.488,0.032-5.233
	c-0.007-0.685,0.87-1.134,1.667-1.159c0.053-0.04,0.107-0.075,0.16-0.103c0.688-0.359,1.667-1.121,1.575-2.025
	c-0.1-0.984-0.783-0.868-1.504-0.654c-0.361,0.106-1.359,0.259-1.591-0.219c-0.132-0.076-0.235-0.181-0.29-0.323
	c-1.444-3.801-2.049-7.813-3-11.75c-0.077-0.316,0.133-0.605,0.467-0.828c-2.614-0.398-5.249-1.333-7.683-2.257
	c-1.201,2.29-3.545,3.519-6.024,4.501c-0.036,0.029-0.07,0.055-0.105,0.081c1.241,3.723,1.221,6.632-0.834,10.231
	c-0.071,0.124-0.179,0.234-0.312,0.33c0.046,0.139,0.103,0.263,0.138,0.416c0.214,0.917-2.692,1.66-2.897,0.775
	c-0.017-0.072-0.039-0.147-0.058-0.222l-0.104,0.084c0,0-0.22-1.606-2.29-0.938c-0.234,0.322-0.416,0.684-0.513,1.002
	c-0.348,1.132-0.25,2.383,0.381,3.407c0.201,0.327,0.493,0.702,0.838,0.937c0.09-0.141,0.173-0.285,0.251-0.45
	c0.279-0.587,1.07-0.833,1.664-0.918c0.218-0.031,1.495-0.073,1.22,0.504c-0.564,1.185-1.678,2.143-2.937,2.469
	c-0.021,0.032-0.035,0.063-0.061,0.097c-1.427,1.892-2.921,3.485-4.756,4.969c-0.462,0.373-2.242,0.77-2.387-0.189
	c-0.918-6.032-5.463-7.896-8.374-12.682c-2.125-3.492-3.041-8.057-1.869-11.991c1.719-5.771,8.371-7.358,13.712-6.514
	c2.255-5.748,7.808-7.925,14.003-6.92c2.358,0.382,3.264,1.175,5.538-0.358c1.294-0.872,2.806-2.097,4.371-2.479
	c2.29-0.559,5.004-0.732,7.043,0.753c4.056,2.956,5.658,9.521,1.409,13.147c-2.079,1.775-4.446,2.417-6.901,2.414
	c0.905,3.779,1.512,7.625,2.854,11.285c1.418-0.213,3.213-0.145,3.47,1.313c0.297,1.686-1.342,3.093-2.667,3.784
	c-0.2,0.104-0.433,0.194-0.673,0.27c0.036,3.087,0.74,7.232-2.545,8.972c-2.014,1.066-4.236,1.286-6.486,1.146
	c-4.704-0.289-6.108,2.027-8.729,5.121c-0.406,0.48-1.298,0.629-1.945,0.485c3.379,2.368,6.755,4.753,10.445,6.629
	c0.533,0.271,0.495,0.651,0.185,0.989c6.392,1.173,12.27,3.979,18.137,7.096c4.509,2.395,9.167,5.334,14.255,6.242
	c5.162,0.922,10.372,0.945,15.59,0.552c4.625-0.349,12.107-2.675,15.106,2.438c0.292,0.497,0.546,1.029,0.782,1.575
	c1.504-2.451,3.919-4.238,6.386-5.815c0.52-0.332,1.83-0.743,2.272-0.034c0.329,0.525,1.564,3.387,2.421,4.268
	c1.311-14.705,2.403-29.434,3.303-44.172c-1.138,0.116-2.384-0.659-1.097-1.552c0.363-0.252,0.729-0.492,1.094-0.731
	c0.047-0.03,0.094-0.063,0.141-0.094c0.06-1.003,0.116-2.006,0.174-3.008c0.508-8.758,0.954-17.518,1.338-26.28
	c-0.914,0.122-1.836-0.023-1.06-0.705c0.376-0.331,0.755-0.636,1.135-0.927c0.17-3.953,0.33-7.907,0.477-11.861
	c0.032-0.858,2.915-1.231,2.897-0.777c-0.134,3.604-0.279,7.207-0.432,10.81c5.347-2.606,10.832-1.388,15.658,3.545
	c5.641,5.765,12.937,18.553,22.164,12.293c0.042-0.081,0.086-0.167,0.128-0.248c0.575-1.101,3.514-1.134,2.763,0.303
	c-3.451,6.598-9.467,19.97-19.157,17.806c-3.092-0.691-5.78-2.5-8.83-3.328c-5.249-1.426-10.048,0.363-14.444,3.076
	c-0.925,15.273-2.05,30.535-3.416,45.773c1.416-0.207,2.826-0.373,4.287-0.25c1.623,0.138,3.457,0.846,3.938,2.52
	c0.189,0.658-0.074,1.301-0.531,1.883c0.104,0.108,0.169,0.248,0.166,0.432c-0.032,1.756-0.466,3.472-1.391,4.933
	c0.023,0.058,0.045,0.116,0.055,0.185c0.353,2.43-0.646,4.179-2.492,5.699c-0.106,0.087-0.225,0.152-0.35,0.207
	c-0.083,0.105-0.192,0.216-0.351,0.334c-1.728,1.284-3.523,2.104-5.37,2.613c-3.417,38.999-6.343,78.041-10.324,116.989
	c10.424-1.077,24.982-1.318,26.22,8.823c0.073,0.597-0.441,1.068-1.056,1.303c3.714,2.039,7.259,5.032,7.68,9.497
	c0.437,4.642-1.164,9.036-3.219,13.136c-3.196,6.375-7.565,12.196-9.151,19.273c-1.699,7.584-1.221,14.931,1.746,22.125
	c2.837,6.881,7.462,12.483,11.461,18.672c3.481,5.388,5.836,10.896,7.382,17.133c1.64,6.62,2.86,13.727,7.05,19.337
	C386.19,508.907,389.879,514.403,392.945,520.386z M349.979,190.465c6.097-3.241,12.479-4.31,19.361-1.284
	c2.462,1.083,5.726,3.067,8.433,1.674c4.831-2.488,7.922-8.336,10.455-13.308c0.011-0.021,0.022-0.043,0.033-0.064
	c-0.84,0.341-1.674,0.585-2.501,0.743c-4.843,0.926-9.427-1.196-13.518-5.544c-5.647-6.001-12.191-16.971-20.764-11.468
	C351.055,170.968,350.556,180.718,349.979,190.465z M333.498,243.419c0.55,2.383,0.692,4.914,0.447,7.197
	c-0.211,1.968-0.848,3.59-1.792,4.926c5.507,0.659,10.965,1.606,15.754-1.953c0.045-0.033,0.097-0.062,0.147-0.09
	c0.036-0.214,0.18-0.451,0.485-0.703c0.996-0.82,1.538-1.752,1.55-2.947c-0.62-0.074-1.004-0.388-0.428-1.004
	c0.937-1.002,1.4-2.363,1.597-3.732c-1.15,0.537-3.264-0.226-1.701-1.25c2.561-1.68,1.849-3.883-1.29-3.552
	c-0.919,0.098-1.826,0.236-2.738,0.386c-1.051,0.171-2.175,0.438-3.239,0.22c-1.587-0.326-2.47-2.486-3.223-4.095
	c-2.114,1.482-4.048,3.246-4.777,5.816C334.197,242.97,333.884,243.235,333.498,243.419z M226.557,265.366
	c-0.386,3.815-0.814,16.938,6.88,12.923c6.194-3.232,7.245-13.118,8.091-19.249c0.772-5.594,0.882-11.516,2.454-16.965
	c-0.123,0.011-0.242,0.032-0.367,0.038c-2.53,0.122-4.319-0.537-5.489-1.668c-0.159,0.021-0.321,0.021-0.479-0.01
	c-1.172-0.233-2.313-0.415-3.476-0.423c0.007,0.131,0.012,0.264,0.023,0.39c0.17,1.971,2.239,7.103,0.357,8.77
	c-1.273,1.128-3.081,1.232-4.814,1.074C228.314,255.186,227.075,260.251,226.557,265.366z M244.49,240.106
	c7.229-0.904,8.959-15.633,0.29-14.383C238.947,227.732,235.935,241.176,244.49,240.106z M243.198,224.301
	c-5.282,1.034-8.495,8.31-8.98,13.706c0.842-0.033,1.676,0.021,2.509,0.125C235.279,233.652,238.34,226.709,243.198,224.301z
	 M306.673,258.856c5.469,1.176,11.794,2.22,17.286,0.639c5.646-1.624,7.31-5.771,7.067-11.152
	c-0.208-4.586-1.485-12.199-7.781-11.573c-7.08,0.704-14.153,1.337-21.259,0.635c-12.678-1.251-22.386-10.659-34.532-13.542
	c-0.149,0.084-0.321,0.156-0.532,0.206c-5,1.166-9.006-1.908-13.946-2.537c-1.845-0.234-3.668-0.664-5.499-1.025
	c0.574,0.78,1.025,1.745,1.469,2.88c0.074,0.189,0.016,0.349-0.119,0.482c7.084,1.952,5.366,14.121-1.85,17.422
	c0.026,0.105,0.029,0.225-0.013,0.367c-2.35,7.968-1.863,16.598-3.878,24.674c-1.511,6.06-4.075,13.133-10.994,14.416
	c-1.706,0.316-3.099,0.216-4.246-0.193c-5.129-0.076-10.995-0.908-16.376-2.485c-1.009,4.669-5.679,13.626-2.115,17.138
	c3.852,3.795,10.451,4.554,15.595,5.168c6.032,0.72,12.117,0.467,18.134-0.32c3.13-0.409,6.274-0.863,9.338-1.64
	c1.486-0.376,4.63-0.764,5.61-2.172c0-0.011-0.004-0.021-0.004-0.031c0.001-16.099,0.336-32.129,7.224-46.983
	c-2.2-0.309-4.429-0.5-6.696-0.537c-1.421-0.023,1.286-1.176,1.884-1.166C276.739,247.797,291.022,255.488,306.673,258.856z
	 M229.666,208.685c-1.017,0.492-1.9,1.171-2.549,2.105c-4.283,6.171,6.836,6.968,9.493,7.02c3.423,0.067,6.755-0.269,10.146,0.375
	c3.557,0.675,7.144,1.176,10.69,1.883c1.765,0.352,3.369,1.246,5.049,1.791c0.514,0.002,1.023,0.016,1.53,0.041
	c-4.747-2.757-8.977-6.251-13.638-9.167c-2.965-1.854-6.114-3.729-9.565-4.505c-2.176-0.488-5.195-0.855-7.947-0.467
	C231.73,207.921,230.637,208.214,229.666,208.685z M213.223,244.175c2.331,0.508,4.589,1.343,6.852,2.085
	c2.961,0.972,5.916,1.8,9.005,2.251c1.042,0.151,3.118,0.845,3.186,0.022c0.266-3.221-1.278-6.327-0.925-9.604
	c0.368-3.42,1.357-6.896,3.308-9.775c2.652-3.914,6.389-6.418,10.806-6.431c-0.608-1.339-1.373-2.399-2.949-2.822
	c-2.309-0.067-4.602,0.114-6.913-0.038c-1.653-0.108-4.987-0.459-7.83-1.396c-0.068,0.012-0.133,0.019-0.192,0.02
	c-2.206,0.04-4.331-0.214-6.526-0.355c-4.514-0.292-7.708,2.934-9.497,6.787c-2.383,5.129-3.227,10.605-4.133,16.142
	C206.847,244.527,210.621,243.609,213.223,244.175z M204.535,272.935c5.957,3.23,13.747,5.385,21.002,6.032
	c-5.127-5.958-0.119-23.753,1.444-29.111c-6.542-1.101-12.719-4.154-19.29-4.879C205.407,253.046,193.813,267.119,204.535,272.935z
	 M197.929,295.86c2.357,1.663,6.332,3.723,8.201,0.244c0.005-0.011,0.012-0.019,0.018-0.029c0.003-0.006,0.011-0.01,0.014-0.016
	c0.046-0.084,0.099-0.166,0.171-0.241c-3.191-5.145,1.706-12.856,2.382-18.2c0.017-0.135,0.088-0.26,0.193-0.375
	c-2.581-0.904-4.998-1.984-7.084-3.253c-0.083-0.05-0.152-0.104-0.232-0.156c-2.099,5.039-6.429,9.774-6.923,15.229
	C194.407,291.938,195.559,294.188,197.929,295.86z M192.329,315.161C192.148,315.195,192.156,315.276,192.329,315.161
	L192.329,315.161z M205.394,311.007c0.019-0.037,0.047-0.071,0.073-0.106c0.077-0.251,0.152-0.501,0.211-0.759
	c0.238-1.039,0.494-2.086,0.567-3.152c0.186-2.707,0.107-5.438-0.049-8.156c-2.817,1.518-6.657,0.866-9.587-0.866
	c-4.137,4.76-8.28,9.504-8.305,16.126c0.074,0.132,0.198,0.291,0.313,0.439c0.011-0.017,0.022-0.027,0.034-0.045
	c0.66-1.006,1.176-2.099,1.657-3.199c0.804-1.84,1.412-3.953,2.658-5.557c0.751-0.968,3.513-0.683,2.397,0.752
	c-0.835,1.075-1.264,2.623-1.789,3.862c-0.575,1.359-1.146,2.786-1.949,4.04c0.228,0.25,0.503,0.531,0.816,0.688
	c0.04-0.035,0.08-0.068,0.13-0.119c0.143-0.139,0.28-0.283,0.411-0.433c0.777-0.921,1.396-1.979,1.952-3.045
	c0.874-1.677,1.554-3.458,2.467-5.112c0.401-0.727,3.068-0.896,2.857-0.514c-1.429,2.586-2.333,5.475-4.164,7.828
	c0.191,0.008,0.38,0.033,0.563,0.09c2.949,0.914,4.945-6.153,5.728-8.131c0.359-0.908,3.231-1.258,2.89-0.395
	c-0.355,0.898-0.744,1.893-1.183,2.897c0.076,0.069,0.143,0.146,0.187,0.245C204.638,309.19,204.936,310.176,205.394,311.007z
	 M173.625,410.55c0,0.034,0.006,0.064,0.002,0.101c-0.042,0.376-0.094,0.749-0.146,1.123c0.218,0.051,0.416,0.142,0.564,0.291
	c4.246,4.271,12.894,1.762,17.556-1.064c0.006-0.129,0.038-0.27,0.118-0.43c7.773-15.439,14.345-31.47,23.733-46.046
	c4.938-7.668,9.943-15.287,14.382-23.262c2.6-4.672,6.605-10.506,7.161-16.045c-4.129-0.793-8.2-1.908-12.167-3.436
	c-1.288-0.496,1.328-1.855,2.283-1.488c3.644,1.402,7.383,2.43,11.178,3.17c0.553-0.127,1.15-0.048,1.473,0.286
	c12.667,2.207,25.924,1.141,38.48-1.194c0.461-0.086,1.069,0.031,1.273,0.496c5.502,12.527,9.84,25.622,14.32,38.541
	c0.73,2.106,1.458,4.214,2.18,6.324c0.19,0.557,0.188,0.809,0.157,0.912c0.072-0.043,0.238-0.086,0.6-0.041
	c5.67,0.693,13.451,0.629,14.571-6.371c-8.626-16.471-6.394-36.936-16.087-52.945c-6.856-11.323-22.851-11.533-34.91-12.557
	c-0.036,0.021-0.072,0.041-0.109,0.06c-2.578,2.822-9.326,3.419-12.396,3.938c-7.708,1.307-15.638,2.056-23.436,1.197
	c-4.16-0.458-10.992-0.971-15.259-3.589c0.291,4.257,0.43,8.7-0.975,12.692c-3.078,17.729-10.49,34.059-19.258,49.654
	C180.203,376.361,176.57,393.109,173.625,410.55z M205.334,426.918c1.499-7.271-12.261-9.157-18.712-11.51
	c-4.688,1.407-9.867,1.659-13.625-0.79c-0.502,2.568-1.138,5.113-1.628,7.683c-0.432,2.265-1.918,7.081-0.082,9.06
	c4.561-0.236,9.142-0.256,13.685-0.261c0.255,0,0.464,0.034,0.635,0.093C192.21,429.993,198.811,428.601,205.334,426.918z
	 M297.906,380.642c-0.18-0.15-0.341-0.33-0.476-0.549c-1.698-2.752-1.672-6.281-1.299-9.443c-0.705-0.087-1.387-0.191-2.033-0.313
	c-0.253-0.048-0.493-0.21-0.578-0.459c-5.171-15.208-10.199-30.643-16.619-45.381c-12.139,2.186-24.811,3.093-37.034,1.213
	c-0.79,5.563-4.609,11.299-7.243,15.959c-4.027,7.126-8.357,14.068-12.838,20.917c-10.037,15.339-17.061,32.072-25.277,48.391
	c-0.006,0.013-0.017,0.023-0.024,0.036c0.182,0.289,0.102,0.656-0.47,1.027c-1.32,0.857-2.897,1.676-4.602,2.377
	c6.526,2.357,20.248,4.213,18.866,11.716c14.88-4.061,29.284-9.732,42.24-18.283c9.101-6.007,16.053-14.951,25.722-20.087
	C283.066,384.139,290.504,382.532,297.906,380.642z M308.546,379.094c5.507-0.349,11.014-0.695,16.521-1.043
	c0.021-0.473,0.006-0.905-0.043-1.302c-0.011-0.083-0.025-0.162-0.039-0.242c-0.394-2.36-2.102-3.406-5.008-4.227
	c-3.48-0.982-6.825-2.058-10.052-3.66c-3.004,1.849-7.092,2.389-10.912,2.255c-0.131,2.67-0.136,8.829,1.341,8.736
	c0.685-0.044,1.37-0.087,2.054-0.13c0.1-0.006,0.201-0.013,0.301-0.02C304.655,379.34,306.601,379.217,308.546,379.094z
	 M331.151,374.557c3.974-38.872,6.896-77.84,10.305-116.764c-3.469,0.388-7.089-0.046-10.776-0.476
	c-0.044-0.005-0.077-0.015-0.117-0.021c-4.877,4.268-13.854,4.364-19.898,3.759c-10.875-1.09-20.976-5.281-31.318-8.486
	c-2.603-0.807-5.222-1.55-7.872-2.166c-1.156-0.269-2.318-0.513-3.488-0.728c-6.696,14.508-7.014,30.135-7.021,45.832
	c11.43,1.052,29.268,0.895,36.306,11.78c10.49,16.225,8.103,37.284,16.896,54.212c0.038,0.072,0.071,0.146,0.109,0.218
	c0,0.001,0,0.001,0,0.001c0.004,0.009,0.002,0.019,0.005,0.027c0.006,0.038,0.002,0.082,0,0.124c-0.001,0.026,0.004,0.05,0,0.078
	c-0.293,2.045-1.093,3.661-2.236,4.925c4.177,2.006,8.801,2.625,12.914,4.672c1.609,0.801,2.456,2.009,2.83,3.436
	C328.789,374.854,329.918,374.707,331.151,374.557z M566.99,345.564c-55.498,0-110.995,0-166.492,0c-1.961,0-1.468-2.23,0.228-2.23
	c8.543,0,17.087,0,25.631,0c0.617-7.251,4.151-13.271,9.619-18.185c3.238-2.91,6.748-5.452,10.32-7.933
	c1.721-1.194,4.113-3.76,6.464-3.645c3.723,0.184,5.925,3.653,9.272,4.843c5.552,1.975,4.026-10.108,5.687-12.225
	c4.531-5.773,10.465-10.578,15.321-16.106c2.746-3.127,4.708-6.166,5.197-10.444c0.541-4.739-0.017-9.529,0.551-14.26
	c0.955-7.96,6.029-15.261,14.458-16.176c7.44-0.807,14.428,4.942,19.178,9.969c6.354,6.726,11.849,14.661,15.688,23.098
	c2.49,5.474,3.618,11.288,4.542,17.21c1.013,6.493,1.177,14.885,5.061,20.392c5.543,7.855,11.374,13.395,8.787,23.462
	c3.572,0,7.145,0,10.717,0C569.18,343.334,568.686,345.564,566.99,345.564z M429.207,343.334c41.513,0,83.026,0,124.539,0
	c1.695-7.103-0.696-12.229-5.31-17.926c-3.858-4.763-5.84-8.622-6.977-14.771c-1.289-6.969-1.94-14.107-3.802-20.959
	c-2.461-9.058-8.033-17.732-13.949-24.905c-4.949-6.002-17.038-19.527-25.698-12.277c-9.803,8.206-4.032,19.659-7.606,30.077
	c-2.398,6.989-9.205,12.422-14.225,17.551c-1.903,1.944-5.843,4.709-6.363,7.573c-0.599,3.301,0.198,8.284-2.712,10.697
	c-2.068,1.714-4.844,2.534-7.408,1.302c-1.615-0.777-3.054-1.77-4.521-2.794c-2.55-1.778-2.991-1.884-5.539-0.115
	C440.029,323.454,429.94,330.753,429.207,343.334z M525.68,372.162c-13,0-25.999,0-38.998,0c-1.035,0-3.104,1.57-1.147,1.57
	c13,0,25.999,0,38.998,0C525.567,373.732,527.636,372.162,525.68,372.162z M456.66,379.577c-12,0-23.999,0-35.998,0
	c-1.146,0-3.063,1.74-1.102,1.74c12,0,23.999,0,35.998,0C456.705,381.317,458.621,379.577,456.66,379.577z M468.218,398.812
	c-6.5,0-13,0-19.499,0c-1.709,0-2.178,2.27-0.218,2.27c6.5,0,13,0,19.499,0C469.709,401.081,470.178,398.812,468.218,398.812z
	 M516.694,400.713c-3.5,0-7,0-10.5,0c-0.967,0-3.125,1.467-1.175,1.467c3.5,0,7,0,10.5,0
	C516.486,402.18,518.644,400.713,516.694,400.713z M107.678,368.999c12,0,23.999,0,35.998,0c0.558,0,3.284-1.102,1.901-1.102
	c-12,0-23.999,0-35.998,0C109.021,367.897,106.295,368.999,107.678,368.999z M192.082,336.352c0.673,0,1.527-0.198,1.904-0.824
	c0.351-0.583-0.296-0.98-0.82-0.98c-2,0-4,0-6,0c-0.673,0-1.527,0.198-1.904,0.824c-0.351,0.583,0.296,0.98,0.82,0.98
	C188.083,336.352,190.082,336.352,192.082,336.352z M123.757,355.39c-15.5,0-30.999,0-46.498,0c-1.655,0-2.225,2.117-0.259,2.117
	c15.5,0,30.999,0,46.498,0C125.153,357.507,125.723,355.39,123.757,355.39z M166.999,351.517c1.661,0,2.22-2.135,0.254-2.135
	c-5.5,0-11,0-16.499,0c-1.661,0-2.22,2.135-0.254,2.135C155.999,351.517,161.499,351.517,166.999,351.517z M425.824,142.748
	c3.148-11.153,12.966-20.038,24.806-19.825c0.038-0.003,0.074-0.01,0.113-0.011c4.645-0.056,9.453,0.462,13.719,2.435
	c11.915,5.512,18.433,19.609,13.55,32.16c-5.64,14.495-22.758,18.129-36.542,14.014
	C428.415,167.622,422.139,155.806,425.824,142.748z M449.192,170.684c7.677,0.66,16.188-0.282,21.67-6.341
	c3.81-4.211,5.9-9.744,5.783-15.441c-0.298-14.543-12.063-24.063-26.166-23.894c-0.084,0.001-0.157-0.007-0.232-0.013
	c-0.047,0.002-0.094,0.009-0.141,0.007c-11.895-0.466-21.025,10.802-22.278,21.914C426.296,160.507,436.071,169.554,449.192,170.684
	z" fill="#000000"></path>
</svg>